<svg xmlns="http://www.w3.org/2000/svg" version="1.1" xmlns:xlink="http://www.w3.org/1999/xlink" width="512" height="512" x="0" y="0" viewBox="0 0 512 512" style="enable-background:new 0 0 512 512" xml:space="preserve" class=""><g><path d="M203.294 448.47c-21.631-2.705-43.251-7.074-64.854-13.105-19.525-5.451-33.029-23.241-33.029-43.513V59.911c0-20.272 13.504-38.062 33.029-43.513C177.583 5.472 216.781 0 256 0s78.417 5.472 117.56 16.399c19.525 5.451 33.029 23.241 33.029 43.513v331.941c0 20.272-13.504 38.062-33.029 43.513-21.603 6.031-43.223 10.4-64.854 13.105v48.471c0 8.317-6.742 15.059-15.059 15.059s-15.059-6.742-15.059-15.059V451.16a422.49 422.49 0 0 1-45.176 0v45.782c0 8.317-6.742 15.059-15.059 15.059s-15.059-6.742-15.059-15.059V448.47zM146.539 45.408a15.06 15.06 0 0 0-11.01 14.504v331.941a15.059 15.059 0 0 0 11.01 14.504c36.531 10.199 73.006 15.29 109.461 15.29s72.93-5.092 109.461-15.29a15.06 15.06 0 0 0 11.01-14.504V59.912a15.059 15.059 0 0 0-11.01-14.504C328.93 35.209 292.455 30.118 256 30.118s-72.93 5.091-109.461 15.29zM256 225.882c-41.584 0-75.294-33.71-75.294-75.294S214.416 75.294 256 75.294s75.294 33.71 75.294 75.294-33.71 75.294-75.294 75.294zm0-30.117c24.95 0 45.176-20.226 45.176-45.176S280.95 105.412 256 105.412s-45.176 20.226-45.176 45.176S231.05 195.765 256 195.765zm10.648-34.529c-5.881 5.881-15.416 5.881-21.296 0-5.881-5.881-5.881-15.416 0-21.296l7.529-7.529c5.881-5.881 15.416-5.881 21.296 0 5.881 5.881 5.881 15.416 0 21.296l-7.529 7.529z" fill="#000000" opacity="1" data-original="#000000"></path></g></svg>