<svg xmlns="http://www.w3.org/2000/svg" version="1.1" xmlns:xlink="http://www.w3.org/1999/xlink" width="512" height="512" x="0" y="0" viewBox="0 0 609.809 609.809" style="enable-background:new 0 0 512 512" xml:space="preserve" class=""><g><path d="M141.563 490.025v34.552a10.802 10.802 0 0 0 7.688 10.421 565.345 565.345 0 0 0 155.654 20.363 565.158 565.158 0 0 0 155.643-20.385 10.802 10.802 0 0 0 7.699-10.421v-34.53a585.338 585.338 0 0 1-163.342 21.779 585.26 585.26 0 0 1-163.342-21.779zM348.462 598.92c0 6.014 4.875 10.889 10.889 10.889h21.779c6.014 0 10.889-4.875 10.889-10.889v-27.54c-14.207 1.938-28.726 3.39-43.558 4.356v23.184zM304.905 196.01c36.084 0 65.337-29.252 65.337-65.337s-29.252-65.337-65.337-65.337-65.337 29.252-65.337 65.337c.036 36.07 29.267 65.301 65.337 65.337zm-29.478-94.814c4.252-4.251 11.145-4.251 15.398 0l21.779 21.779a10.89 10.89 0 0 1-4.807 18.367 10.888 10.888 0 0 1-10.59-2.97l-21.779-21.779c-4.252-4.252-4.252-11.145-.001-15.397zM217.789 598.92c0 6.014 4.875 10.889 10.889 10.889h21.779c6.014 0 10.889-4.875 10.889-10.889v-23.162c-14.831-.958-29.351-2.41-43.558-4.356v27.518zM163.342 315.794v65.337h283.126v-65.337zm54.447 43.558H196.01c-6.014 0-10.889-4.875-10.889-10.889s4.875-10.889 10.889-10.889h21.779c6.014 0 10.889 4.875 10.889 10.889s-4.875 10.889-10.889 10.889zm196.01 0H261.347c-6.014 0-10.889-4.875-10.889-10.889s4.875-10.889 10.889-10.889h152.452c6.014 0 10.889 4.875 10.889 10.889s-4.875 10.889-10.889 10.889z" fill="#000000" opacity="1" data-original="#000000"></path><path d="M505.434 36.371C480.725 25.438 411.708 0 304.905 0s-175.821 25.438-200.54 36.382a10.79 10.79 0 0 0-6.359 9.909v397.465a10.813 10.813 0 0 0 6.37 9.92c24.708 10.911 93.725 36.349 200.529 36.349s175.821-25.438 200.54-36.382a10.79 10.79 0 0 0 6.359-9.909V46.291a10.813 10.813 0 0 0-6.37-9.92zm-200.529 7.187c48.113 0 87.116 39.003 87.116 87.116s-39.003 87.116-87.116 87.116-87.116-39.003-87.116-87.116c.054-48.091 39.025-87.062 87.116-87.116zm163.341 337.573c0 12.028-9.751 21.779-21.779 21.779H163.342c-12.028 0-21.779-9.751-21.779-21.779v-65.337c0-12.028 9.751-21.779 21.779-21.779h283.126c12.028 0 21.779 9.751 21.779 21.779v65.337z" fill="#000000" opacity="1" data-original="#000000"></path></g></svg>