<svg xmlns="http://www.w3.org/2000/svg" version="1.1" xmlns:xlink="http://www.w3.org/1999/xlink" width="512" height="512" x="0" y="0" viewBox="0 0 16.933 16.933" style="enable-background:new 0 0 512 512" xml:space="preserve" class=""><g><path d="M8.467.53a7.912 7.912 0 0 0-3.277.704.265.265 0 0 0-.127.36l.473.947a.265.265 0 0 0 .345.123 6.322 6.322 0 0 1 2.586-.547 6.345 6.345 0 0 1 5.254 9.907l-.834-.835a.265.265 0 0 0-.451.188v2.91c0 .146.117.265.263.266h2.91a.265.265 0 0 0 .188-.453l-.938-.938a7.899 7.899 0 0 0 1.546-4.695A7.942 7.942 0 0 0 8.467.529zM1.322 2.38a.265.265 0 0 0-.187.452l.938.938A7.9 7.9 0 0 0 .53 8.467a7.942 7.942 0 0 0 11.215 7.23.265.265 0 0 0 .126-.36l-.474-.946a.265.265 0 0 0-.344-.123 6.323 6.323 0 0 1-2.586.548A6.345 6.345 0 0 1 3.21 4.91l.837.835a.265.265 0 0 0 .451-.188v-2.91a.265.265 0 0 0-.265-.265zm7.66 1.588a.265.265 0 0 0-.21.124L5.598 9.119a.265.265 0 0 0 .222.406h2.096l-.242 3.155c-.02.273.338.392.486.162l3.176-5.028a.265.265 0 0 0-.225-.406H9.016l.244-3.154a.264.264 0 0 0-.277-.286z" fill="#000000" opacity="1" data-original="#000000"></path></g></svg>