<svg xmlns="http://www.w3.org/2000/svg" version="1.1" xmlns:xlink="http://www.w3.org/1999/xlink" width="512" height="512" x="0" y="0" viewBox="0 0 511.976 511.976" style="enable-background:new 0 0 512 512" xml:space="preserve"><g><path d="m496.155 95.737-25.874 25.838c-16.85 16.844-42.447 21.327-64.018 11.212s-34.494-32.661-32.32-56.387a59.504 59.504 0 0 1 17.856-36.27l24.357-24.402A9.142 9.142 0 0 0 409.271.121a95.342 95.342 0 0 0-85.532 114.724c0 .183 0 .366.046.539.08.48.12.967.119 1.454a9.319 9.319 0 0 1-.357 2.523 8.383 8.383 0 0 1-.393.914 8.664 8.664 0 0 1-1.289 2.158c-.091.119-.119.265-.219.375l-.091.101s-.091.055-.128.091c-.037.037-.101.146-.165.21l-37.486 37.605 14.437 14.437a27.432 27.432 0 0 1 7.881 16.457l2.935 27.621a9.143 9.143 0 0 0 6.912 7.927l28.672 7.067c.128 0 .229.101.347.137l43.767-43.776a9.159 9.159 0 0 1 3.045-1.939 8.91 8.91 0 0 1 2.743-.686h.521a9.061 9.061 0 0 1 2.039.174 95.35 95.35 0 0 0 114.725-85.55 9.143 9.143 0 0 0-15.645-6.947zM95.836 496.066a9.142 9.142 0 0 0 6.885 15.607 95.35 95.35 0 0 0 85.54-114.734v-.338a9.178 9.178 0 0 1-.137-1.728c.005-.82.122-1.635.347-2.423.119-.313.256-.618.411-.914a8.986 8.986 0 0 1 1.289-2.149c.101-.119.128-.274.229-.384s.119-.073.165-.119c.071-.101.147-.199.229-.293l43.776-43.776c0-.119-.101-.219-.137-.338l-7.077-28.681a9.143 9.143 0 0 0-7.927-6.866l-27.575-2.935a27.43 27.43 0 0 1-16.457-7.881l-14.482-14.473-37.605 37.486a9.057 9.057 0 0 1-2.423 1.664 8.977 8.977 0 0 1-1.088.475 9.322 9.322 0 0 1-2.359.485c-.229 0-.448.137-.677.137a9.087 9.087 0 0 1-1.472-.265h-.329A95.354 95.354 0 0 0 .237 409.182a9.144 9.144 0 0 0 15.607 6.885l25.947-25.902a56.518 56.518 0 0 1 39.927-16.521h.073c22.889-.013 43.521 13.791 52.245 34.952 8.723 21.161 3.812 45.495-12.437 61.615zM436.59 458.662l14.775 34.469a9.206 9.206 0 0 0 5.486 5.083l39.68 13.221a9.142 9.142 0 0 0 9.344-2.213l3.419-3.41a9.145 9.145 0 0 0 2.213-9.362l-13.221-39.662a9.146 9.146 0 0 0-5.065-5.486l-34.478-14.775a27.026 27.026 0 0 1-8.585-5.815l-121.6-121.6-9.655 9.691-9.691 9.701 121.6 121.6a27.298 27.298 0 0 1 5.778 8.558z" fill="#000000" opacity="1" data-original="#000000"></path><path d="M0 89.3a18.156 18.156 0 0 0 5.358 12.928L167.36 264.239l20.91 20.919a9.223 9.223 0 0 0 5.486 2.624l27.566 2.944a27.511 27.511 0 0 1 23.707 20.69l7.077 28.681a9.141 9.141 0 0 0 15.341 4.279l38.491-38.501 16.201-16.146 22.327-22.318a9.141 9.141 0 0 0-4.279-15.35l-28.672-7.131a27.512 27.512 0 0 1-20.709-23.771l-2.935-27.557a9.145 9.145 0 0 0-2.624-5.486l-20.873-20.873L102.327 5.259c-7.234-6.91-18.622-6.91-25.856 0L5.358 76.372A18.156 18.156 0 0 0 0 89.3zm57.536-31.863a9.143 9.143 0 0 1 12.928 0l160 160a9.142 9.142 0 1 1-12.928 12.929l-160-160a9.144 9.144 0 0 1 0-12.929z" fill="#000000" opacity="1" data-original="#000000"></path></g></svg>