<svg xmlns="http://www.w3.org/2000/svg" version="1.1" xmlns:xlink="http://www.w3.org/1999/xlink" width="512" height="512" x="0" y="0" viewBox="0 0 682.665 682" style="enable-background:new 0 0 512 512" xml:space="preserve" class=""><g><path d="M266.547 1.516a18.747 18.747 0 0 0-20.723 5.296L4.574 285.563A18.741 18.741 0 0 0 1.7 305.63a18.744 18.744 0 0 0 17.051 10.957H72.5v304.996c0 10.356 8.398 18.75 18.75 18.75H260c10.355 0 18.75-8.394 18.75-18.75v-602.5a18.744 18.744 0 0 0-12.203-17.566zM635.375 54.145l-41.25-47.239A18.752 18.752 0 0 0 580.004.488H334.996c-10.351 0-18.75 8.395-18.75 18.75v94.477c0 10.355 8.399 18.75 18.75 18.75h245.008c5.41 0 10.559-2.34 14.121-6.414l41.25-47.242c6.164-7.067 6.164-17.598 0-24.664zM556.625 176.383a18.752 18.752 0 0 0-14.121-6.418H334.996c-10.351 0-18.75 8.394-18.75 18.75v94.476c0 10.36 8.399 18.75 18.75 18.75h207.508c5.41 0 10.559-2.336 14.121-6.414l41.25-47.242c6.164-7.066 6.164-17.597 0-24.664zM519.125 345.86a18.752 18.752 0 0 0-14.121-6.419H334.996c-10.351 0-18.75 8.395-18.75 18.75v94.48c0 10.356 8.399 18.75 18.75 18.75h170.008c5.41 0 10.559-2.339 14.121-6.417l41.25-47.242c6.164-7.063 6.164-17.598 0-24.66zM481.625 514.71a18.752 18.752 0 0 0-14.121-6.417H334.996c-10.351 0-18.75 8.395-18.75 18.75v94.48c0 10.356 8.399 18.75 18.75 18.75h132.508c5.41 0 10.559-2.34 14.121-6.418l41.25-47.242c6.164-7.062 6.164-17.597 0-24.66zm0 0" fill="#000000" opacity="1" data-original="#000000" class=""></path></g></svg>