<svg xmlns="http://www.w3.org/2000/svg" version="1.1" xmlns:xlink="http://www.w3.org/1999/xlink" width="512" height="512" x="0" y="0" viewBox="0 0 512.002 512.002" style="enable-background:new 0 0 512 512" xml:space="preserve" class=""><g><path d="M153.225 180.234c-8.284 0-15 6.716-15 15v60c0 8.284 6.716 15 15 15h102.776c3.021 0 5.971-.912 8.465-2.617l43.888-30a14.998 14.998 0 0 0 0-24.766l-43.888-30a14.998 14.998 0 0 0-8.465-2.617zm120.083 45-21.943 15h-83.14v-30h83.14zM153.225 300.753c-8.284 0-15 6.716-15 15v60c0 8.284 6.716 15 15 15h154.037c3.021 0 5.971-.912 8.465-2.617l43.888-30a14.998 14.998 0 0 0 0-24.766l-43.888-30a14.998 14.998 0 0 0-8.465-2.617zm171.343 45-21.943 15h-134.4v-30h134.4z" fill="#000000" opacity="1" data-original="#000000"></path><path d="m505.793 178.44-241-174.345a15 15 0 0 0-17.584 0l-75.444 54.579V30.762c0-8.284-6.716-15-15-15H92.259c-8.284 0-15 6.716-15 15v96.28L6.209 178.44a15 15 0 0 0 8.792 27.153h62.258v259.64c0 8.284 6.716 15 15 15h45.966v15.52c0 8.284 6.716 15 15 15h267.003c3.021 0 5.971-.912 8.465-2.617l43.889-30a14.998 14.998 0 0 0 0-24.766l-37.838-25.864V205.594h62.258a15 15 0 0 0 8.791-27.154zm-90.202 302.313H168.225v-30h247.366l21.944 15zm4.152-305.159c-8.284 0-15 6.716-15 15v230.16H153.225c-8.284 0-15 6.716-15 15v14.48h-30.966v-259.64c0-8.284-6.716-15-15-15H61.328l39.723-28.736a15 15 0 0 0 6.208-12.153V45.762h34.506v42.277a14.999 14.999 0 0 0 23.792 12.153l90.444-65.43 194.674 140.831h-30.932z" fill="#000000" opacity="1" data-original="#000000"></path></g></svg>