<svg xmlns="http://www.w3.org/2000/svg" version="1.1" xmlns:xlink="http://www.w3.org/1999/xlink" width="512" height="512" x="0" y="0" viewBox="0 0 32 32" style="enable-background:new 0 0 512 512" xml:space="preserve" class=""><g><path d="M21 32H3c-1.103 0-2-.897-2-2v-2c0-1.103.897-2 2-2h18c1.103 0 2 .897 2 2v2c0 1.103-.897 2-2 2zM3 28v2h18.002L21 28zM12.233 24.064a1.002 1.002 0 0 1-.92-1.39L12.022 21h-1.554a1 1 0 0 1-.92-1.39l1.297-3.064a1 1 0 0 1 1.842.78L11.978 19h1.554a1 1 0 0 1 .92 1.39l-1.297 3.064a1 1 0 0 1-.922.61z" fill="#000000" opacity="1" data-original="#000000"></path><path d="M21 28H3a1 1 0 0 1-1-1V2c0-1.103.897-2 2-2h16c1.103 0 2 .897 2 2v25a1 1 0 0 1-1 1zM4 26h16V2H4zM28 17c-2.206 0-4-1.794-4-4V9a1 1 0 0 1 1-1h6a1 1 0 0 1 1 1v4c0 2.206-1.794 4-4 4zm-2-7v3c0 1.103.897 2 2 2s2-.897 2-2v-3z" fill="#000000" opacity="1" data-original="#000000"></path><path d="M30 10a1 1 0 0 1-1-1V5a1 1 0 0 1 2 0v4a1 1 0 0 1-1 1zM26 10a1 1 0 0 1-1-1V5a1 1 0 0 1 2 0v4a1 1 0 0 1-1 1zM23.883 22.936H21a1 1 0 0 1 0-2h2.883A3.12 3.12 0 0 0 27 17.819V16a1 1 0 0 1 2 0v1.82a5.123 5.123 0 0 1-5.117 5.116zM17 14H7a1 1 0 0 1-1-1V5a1 1 0 0 1 1-1h10a1 1 0 0 1 1 1v8a1 1 0 0 1-1 1zm-9-2h8V6H8z" fill="#000000" opacity="1" data-original="#000000"></path></g></svg>