<svg xmlns="http://www.w3.org/2000/svg" version="1.1" xmlns:xlink="http://www.w3.org/1999/xlink" width="512" height="512" x="0" y="0" viewBox="0 0 24 24" style="enable-background:new 0 0 512 512" xml:space="preserve" class=""><g><g data-name="Layer 2"><path d="M15 4.25A7.75 7.75 0 1 0 22.75 12 7.76 7.76 0 0 0 15 4.25zm2.53 10.28a.75.75 0 0 1-1.06 0l-2-2a.75.75 0 0 1-.22-.53V8a.75.75 0 0 1 1.5 0v3.69l1.78 1.78a.75.75 0 0 1 0 1.06z" fill="#000000" opacity="1" data-original="#000000"></path><path d="M8 6.75H5a.75.75 0 0 1 0-1.5h3a.75.75 0 0 1 0 1.5zM6 9.75H3a.75.75 0 0 1 0-1.5h3a.75.75 0 0 1 0 1.5zM6 15.75H3a.75.75 0 0 1 0-1.5h3a.75.75 0 0 1 0 1.5zM6 12.75H2a.75.75 0 0 1 0-1.5h4a.75.75 0 0 1 0 1.5zM8 18.75H5a.75.75 0 0 1 0-1.5h3a.75.75 0 0 1 0 1.5z" fill="#000000" opacity="1" data-original="#000000"></path></g></g></svg>