<svg xmlns="http://www.w3.org/2000/svg" version="1.1" xmlns:xlink="http://www.w3.org/1999/xlink" width="512" height="512" x="0" y="0" viewBox="0 0 512 512" style="enable-background:new 0 0 512 512" xml:space="preserve" class=""><g><circle cx="260.471" cy="437" r="15" fill="#000000" opacity="1" data-original="#000000"></circle><path d="M453.519 504.4a15 15 0 0 0-.174-15.099l-68.988-115.363c41.535-37.04 64.363-91.744 64.363-140.858-.031-.101 3.168-74.769-68.292-110.497a14.997 14.997 0 0 0-14.594.657c-4.423 2.733-7.363 7.561-7.363 12.76v28.723c0 6.636-3.247 12.461-9.104 15.583-5.855 3.122-12.642 2.776-18.15-.925-6.428-4.317-9.313-12.497-7.018-19.893l5.723-18.437C347.986 82.854 315.93 19.925 258.463.77a14.998 14.998 0 0 0-18.159 20.939c2.063 4.126 5.252 23.37 3.992 45.444-1.476 25.841-7.902 38.802-12.958 42.05-5.286 3.395-23.014-1.754-55.938-42.614a14.999 14.999 0 0 0-25.096 2.703c-16.823 33.645-16.054 68.312 2.225 100.252 6.019 10.52 1.9 23.742-9.559 27.561-11.939 3.979-24.499-4.884-24.499-17.478V166c0-6.067-3.405-11.536-9.011-13.858a15 15 0 0 0-16.347 3.251c-32.662 32.661-43.303 70.486-32.53 115.637 10.334 43.315 36.321 82.42 72.185 109.29L67.597 489.301A15.002 15.002 0 0 0 80.471 512h360a15 15 0 0 0 13.048-7.6zM89.765 264.068c-5.463-22.896-3.907-42.798 4.997-60.886 10.681 19.179 34.274 30.191 57.694 22.384 29.134-9.711 41.691-43.689 26.111-70.921-9.145-15.979-12.205-32.463-9.177-49.231 12.112 12.801 23.22 21.906 33.628 27.599 20.876 11.418 35.74 7.082 44.532 1.432 19.692-12.649 25.387-42.645 26.696-65.582.458-8.034.427-17.09-.148-25.892 25.592 20.659 37.483 55.966 27.171 89.187l-5.722 18.437c-6.196 19.959 1.593 42.037 18.94 53.69a47.57 47.57 0 0 0 48.988 2.497 47.57 47.57 0 0 0 25.243-42.058v-.324c18.538 17.123 29.563 41.288 29.911 67.438-.476 43.839-18.9 85.967-50 115.801L273.343 188.3a15.002 15.002 0 0 0-25.748 0L148.26 354.416c-29.025-22.617-50.017-54.813-58.495-90.348zM106.918 482l153.553-256.774L414.024 482z" fill="#000000" opacity="1" data-original="#000000"></path><path d="M260.471 301c-8.284 0-15 6.716-15 15v61c0 8.284 6.716 15 15 15s15-6.716 15-15v-61c0-8.284-6.716-15-15-15z" fill="#000000" opacity="1" data-original="#000000"></path></g></svg>