<svg xmlns="http://www.w3.org/2000/svg" version="1.1" xmlns:xlink="http://www.w3.org/1999/xlink" width="512" height="512" x="0" y="0" viewBox="0 0 512 512" style="enable-background:new 0 0 512 512" xml:space="preserve" class=""><g><path d="M338.744 262.564c-68.88 0-124.718 55.838-124.718 124.718S269.864 512 338.744 512s124.718-55.838 124.718-124.718-55.839-124.718-124.718-124.718zm14.999 198.795h-30v-30h30zm0-64.231h-30v-85.333h30zM172.681 214.882l9.321-7.393 9.321 7.393c1.595 1.265 27.632 22.308 43.478 57.794a153.947 153.947 0 0 1 43.71-27.941 153.382 153.382 0 0 1 36.082-10.294c-1.431-12.313-4.651-24.701-9.849-36.855C278.738 117.948 220.242 65.033 220.242 0 165.409 37.537 116.61 71.378 116.61 165.196l-45.224-47.223L51.06 221.897c-5.45 27.863-2.128 56.934 10.587 82.319 14.381 28.711 38.461 51.711 67.936 64.738-7.745-10.643-12.346-23.714-12.388-37.845-1.703-70.043 53.148-114.373 55.486-116.227z" fill="#000000" opacity="1" data-original="#000000"></path><path d="m147.189 330.523.005.386c0 19.193 15.615 34.809 34.808 34.809 1.197 0 2.38-.061 3.546-.179a153.35 153.35 0 0 1 10.649-38.489 154.123 154.123 0 0 1 16.076-28.925c-7.112-23.157-20.972-40.853-30.271-50.779-13.262 14.155-35.82 44.099-34.813 83.177z" fill="#000000" opacity="1" data-original="#000000"></path></g></svg>