<svg xmlns="http://www.w3.org/2000/svg" version="1.1" xmlns:xlink="http://www.w3.org/1999/xlink" width="512" height="512" x="0" y="0" viewBox="0 0 512 512" style="enable-background:new 0 0 512 512" xml:space="preserve" class=""><g><path d="M48 264h16v16H48zM448 264h16v16h-16zM248 208h16v16h-16z" fill="#000000" opacity="1" data-original="#000000" class=""></path><path d="M422.886 106.3C378.183 89.338 318.915 80 256 80s-122.183 9.338-166.886 26.3C41.966 124.179 16 148.934 16 176v96c0 34 40.111 63.583 110.049 81.165l3.9-15.518C69.532 322.459 32 297.305 32 272c0-19.655 22.886-39.609 62.789-54.745C137.724 200.969 194.976 192 256 192s118.276 8.969 161.211 25.255C457.114 232.391 480 252.345 480 272c0 25.305-37.532 50.459-97.951 65.647l3.9 15.518C455.889 335.583 496 306 496 272v-96c0-27.066-25.966-51.821-73.114-69.7zm0 96C378.183 185.338 318.915 176 256 176s-122.183 9.338-166.886 26.3c-25.3 9.595-44.485 21.17-56.847 34.016 2.661-18.443 25.113-36.867 62.522-51.056C137.724 168.969 194.976 160 256 160s118.276 8.969 161.211 25.255c37.409 14.189 59.861 32.613 62.522 51.056-12.362-12.846-31.551-24.421-56.847-34.011zm0-32C378.183 153.338 318.915 144 256 144s-122.183 9.338-166.886 26.3C63.632 179.96 44.352 191.636 32 204.6V176c0-19.655 22.886-39.609 62.789-54.745C137.724 104.969 194.976 96 256 96s118.276 8.969 161.211 25.255C457.114 136.391 480 156.345 480 176v28.6c-12.352-12.964-31.632-24.64-57.114-34.3z" fill="#000000" opacity="1" data-original="#000000" class=""></path><path d="M388.725 304.439a23.849 23.849 0 0 0-.121-21.715c-8.583-16.318-31.14-26.271-48.551-31.747-23.636-7.434-53.487-11.529-84.053-11.529s-60.417 4.095-84.053 11.529c-17.411 5.476-39.968 15.429-48.551 31.747a23.849 23.849 0 0 0-.121 21.715l44.839 89.678c1.156 10.789 11.165 20.252 28.48 26.82 15.994 6.067 37.092 9.408 59.406 9.408s43.412-3.341 59.406-9.408c17.315-6.568 27.324-16.031 28.48-26.82zm-251.168-14.266c8.854-16.834 53.375-34.725 118.443-34.725s109.589 17.891 118.443 34.725a7.812 7.812 0 0 1-.029 7.11l-38.773 77.547c-4.808-4.511-11.616-8.5-20.235-11.767-15.994-6.063-37.092-9.408-59.406-9.408s-43.412 3.341-59.406 9.408c-8.619 3.27-15.427 7.256-20.235 11.767l-38.773-77.547a7.812 7.812 0 0 1-.029-7.11zm172.174 115.8c-14.226 5.4-33.308 8.368-53.731 8.368s-39.5-2.972-53.731-8.368C189.649 401.19 184 395.508 184 392s5.649-9.19 18.269-13.977c14.226-5.4 33.308-8.368 53.731-8.368s39.5 2.972 53.731 8.368C322.351 382.81 328 388.492 328 392s-5.649 9.19-18.269 13.977z" fill="#000000" opacity="1" data-original="#000000" class=""></path><path d="M248 280h16v48h-16zM281.875 332.66l7.98-47.981 15.776 2.624-7.98 47.98zM313.53 343.544l14.482-46.411 15.28 4.768-14.482 46.41zM205.912 287.287l15.776-2.624 7.98 47.98-15.776 2.624zM168.983 302.097l15.28-4.768 14.482 46.412-15.28 4.768zM248 384h16v16h-16z" fill="#000000" opacity="1" data-original="#000000" class=""></path></g></svg>