<svg xmlns="http://www.w3.org/2000/svg" version="1.1" xmlns:xlink="http://www.w3.org/1999/xlink" width="512" height="512" x="0" y="0" viewBox="0 0 512 512" style="enable-background:new 0 0 512 512" xml:space="preserve" class=""><g><path d="M453.565 178.087c-27.619 0-50.087 22.468-50.087 50.087 0 21.737 14 40.096 33.391 47.011v53.163c0 58.759-43.63 107.391-100.174 115.536V326.682c-38.358 38.784-91.533 62.884-150.261 62.884-58.728 0-111.903-24.1-150.261-62.884v135.231C36.173 489.532 58.641 512 86.26 512h200.348c21.995 0 40.513-14.342 47.229-34.093 76.387-7.014 136.424-71.377 136.424-149.56v-53.163c19.391-6.914 33.391-25.273 33.391-47.011 0-27.618-22.468-50.086-50.087-50.086zM253.217 467.478H119.652c-9.217 0-16.696-7.473-16.696-16.696 0-9.223 7.479-16.696 16.696-16.696h133.565c9.217 0 16.696 7.473 16.696 16.696 0 9.223-7.478 16.696-16.696 16.696zM453.565 244.87c-9.206 0-16.696-7.49-16.696-16.696 0-9.206 7.49-16.696 16.696-16.696 9.206 0 16.696 7.49 16.696 16.696 0 9.206-7.49 16.696-16.696 16.696z" fill="#000000" opacity="1" data-original="#000000"></path><path d="M186.435 0C88.239 0 8.348 79.891 8.348 178.087s79.891 178.087 178.087 178.087 178.087-79.891 178.087-178.087S284.631 0 186.435 0zm0 222.609c-24.555 0-44.522-19.967-44.522-44.522s19.967-44.522 44.522-44.522 44.522 19.967 44.522 44.522-19.967 44.522-44.522 44.522z" fill="#000000" opacity="1" data-original="#000000"></path></g></svg>