<svg xmlns="http://www.w3.org/2000/svg" version="1.1" xmlns:xlink="http://www.w3.org/1999/xlink" width="512" height="512" x="0" y="0" viewBox="0 0 512 512" style="enable-background:new 0 0 512 512" xml:space="preserve" class=""><g><path d="M461.913 178.087c-27.618 0-50.087 22.469-50.087 50.087 0 21.766 13.959 40.323 33.391 47.215v52.959c0 58.773-43.612 107.546-100.174 115.672V318.595c27.802-33.681 44.522-76.831 44.522-123.813C389.565 87.38 302.186 0 194.783 0S0 87.38 0 194.783c0 46.982 16.72 90.132 44.522 123.813v143.318c0 27.618 22.469 50.087 50.087 50.087h200.348c22.012 0 40.737-14.278 47.439-34.054 76.291-7.107 136.213-71.482 136.213-149.599v-52.959c19.433-6.892 33.391-25.45 33.391-47.215 0-27.618-22.469-50.087-50.087-50.087zM311.652 461.913c0 9.206-7.49 16.696-16.696 16.696H94.609c-9.206 0-16.696-7.49-16.696-16.696V350.51c32.577 24.51 73.056 39.056 116.87 39.056s84.293-14.545 116.87-39.056v111.403zM194.783 356.174c-88.991 0-161.391-72.4-161.391-161.391s72.4-161.391 161.391-161.391 161.391 72.4 161.391 161.391-72.4 161.391-161.391 161.391zm267.13-111.304c-9.206 0-16.696-7.49-16.696-16.696 0-9.206 7.49-16.696 16.696-16.696s16.696 7.49 16.696 16.696c0 9.206-7.49 16.696-16.696 16.696z" fill="#000000" opacity="1" data-original="#000000" class=""></path><path d="M194.783 133.565c-33.755 0-61.217 27.462-61.217 61.217 0 33.755 27.462 61.217 61.217 61.217C228.538 256 256 228.538 256 194.783c0-33.756-27.462-61.218-61.217-61.218zm0 89.044c-15.343 0-27.826-12.483-27.826-27.826s12.483-27.826 27.826-27.826 27.826 12.483 27.826 27.826-12.483 27.826-27.826 27.826zM261.565 411.826H128c-9.22 0-16.696 7.475-16.696 16.696s7.475 16.696 16.696 16.696h133.565c9.22 0 16.696-7.475 16.696-16.696s-7.475-16.696-16.696-16.696z" fill="#000000" opacity="1" data-original="#000000" class=""></path></g></svg>