<svg xmlns="http://www.w3.org/2000/svg" version="1.1" xmlns:xlink="http://www.w3.org/1999/xlink" width="512" height="512" x="0" y="0" viewBox="0 0 32 32" style="enable-background:new 0 0 512 512" xml:space="preserve" class=""><g><path d="M29 2H3a1 1 0 0 0-1 1v5c0 1.103.897 2 2 2h1.18l.839 4.196A1 1 0 0 0 7 15h18a.998.998 0 0 0 .98-.804L26.82 10H28c1.103 0 2-.897 2-2V3a1 1 0 0 0-1-1zm-4.819 11H7.819l-.6-3H10v1a1 1 0 1 0 2 0v-1h3v1a1 1 0 1 0 2 0v-1h3v1a1 1 0 1 0 2 0v-1h2.78zM4 8V4h24l.001 4H4z" fill="#000000" opacity="1" data-original="#000000"></path><path d="M17 6a1 1 0 1 1-2 0 1 1 0 0 1 2 0zM17.987 17.844a1 1 0 0 0-.978-.844C12.93 16.966 10 21.436 10 24.833c0 1.949 1.172 3.871 2.333 4.912.238.213.572.307.908.226.463-.115.62-.414.764-.805.413-1.123 1.131-3.072 1.977-3.928.685.868.837 2.879 1.035 3.944.058.309.257.572.538.713.279.139.611.138.893-.001 2.15-1.074 3.578-3.114 3.553-5.074-.043-3.161-3.629-4.548-4.014-6.976zm.755 9.439c-.269-1.611-.75-3.473-2.326-4.192a1.001 1.001 0 0 0-.846.006c-1.341.639-2.243 2.356-2.891 3.937-.395-.661-.68-1.439-.68-2.2 0-2.236 1.839-5.261 4.25-5.761.934 2.559 3.726 3.881 3.75 5.773.012.812-.478 1.718-1.257 2.437zM7.758 22.652c-.85.985-1.167 1.354-.004 2.691a.998.998 0 0 1-.098 1.41.997.997 0 0 1-1.41-.098c-2.301-2.643-.863-4.312-.004-5.309.85-.985 1.167-1.354.004-2.691a.998.998 0 0 1 .098-1.41.997.997 0 0 1 1.41.098c2.301 2.643.863 4.312.004 5.309zM25.758 21.348c.859.997 2.297 2.666-.004 5.309a.998.998 0 0 1-1.41.098.998.998 0 0 1-.098-1.41c1.163-1.337.846-1.706-.004-2.691-.859-.997-2.297-2.666.004-5.309a1 1 0 0 1 1.508 1.312c-1.163 1.336-.846 1.705.004 2.691z" fill="#000000" opacity="1" data-original="#000000"></path></g></svg>