<svg xmlns="http://www.w3.org/2000/svg" version="1.1" xmlns:xlink="http://www.w3.org/1999/xlink" width="512" height="512" x="0" y="0" viewBox="0 0 32 32" style="enable-background:new 0 0 512 512" xml:space="preserve" class=""><g><path d="M27 2H5C3.346 2 2 3.346 2 5v4c0 1.654 1.346 3 3 3h2.323l1.748 4.371c.153.38.52.629.929.629h12a1 1 0 0 0 .929-.629L24.677 12H27c1.654 0 3-1.346 3-3V5c0-1.654-1.346-3-3-3zM9.477 12h1.703l.6 3h-1.103zm4.343 3-.6-3H15v3zM17 12h1.78l-.6 3H17zm4.323 3H20.22l.6-3h1.703zM28 9a1 1 0 0 1-1 1H5c-.551 0-1-.448-1-1V5c0-.552.449-1 1-1h22a1 1 0 0 1 1 1z" fill="#000000" opacity="1" data-original="#000000"></path><path d="M10 6H6a1 1 0 1 0 0 2h4a1 1 0 1 0 0-2zM18 6h-4a1 1 0 1 0 0 2h4a1 1 0 1 0 0-2zM26 6h-4a1 1 0 1 0 0 2h4a1 1 0 1 0 0-2zM17.183 21.614l.554-2.387a1 1 0 0 0-1.776-.824l-2.312 3.112a3.354 3.354 0 0 0-.608 2.503 3.207 3.207 0 0 0 1.293 2.136c.393.282.666.705.666 1.033V29a1 1 0 0 0 1.682.731l1.017-.95C18.525 28.111 19 27.098 19 26s-.475-2.112-1.302-2.781c-.447-.36-.654-1.006-.515-1.605zm-.266 4.91c-.22-.868-.834-1.577-1.417-1.995a1.222 1.222 0 0 1-.483-.819 1.348 1.348 0 0 1 .202-.953c.167.788.59 1.508 1.222 2.017.355.288.559.734.559 1.226 0 .182-.028.357-.083.523zM27.19 20.056l.555-2.866a1 1 0 0 0-1.832-.716l-2.312 3.733c-1.02 1.65-.723 3.966.664 5.161.366.316.735.888.735 1.456V29a1 1 0 0 0 1.745.667l1.022-1.146C28.55 27.761 29 26.623 29 25.4c-.001-1.223-.45-2.36-1.234-3.12-.506-.49-.738-1.384-.576-2.223zm-.273 6.021c-.212-.955-.795-1.749-1.347-2.224-.587-.505-.739-1.64-.357-2.432.156.89.558 1.71 1.161 2.294.392.38.626 1.01.626 1.684 0 .234-.028.462-.083.678zM7.19 20.056l.556-2.866a1 1 0 0 0-1.832-.716l-2.312 3.733c-1.022 1.65-.725 3.965.663 5.161.366.315.735.887.735 1.456V29a1 1 0 0 0 1.746.667l1.02-1.146C8.55 27.761 9 26.623 9 25.4s-.45-2.36-1.234-3.12c-.506-.49-.738-1.384-.575-2.223zm-.273 6.021c-.211-.955-.794-1.749-1.347-2.224-.587-.506-.739-1.64-.357-2.431.156.89.558 1.709 1.161 2.294.392.379.626 1.009.626 1.683 0 .234-.028.462-.083.678z" fill="#000000" opacity="1" data-original="#000000"></path></g></svg>