<svg xmlns="http://www.w3.org/2000/svg" version="1.1" xmlns:xlink="http://www.w3.org/1999/xlink" width="512" height="512" x="0" y="0" viewBox="0 0 32 32" style="enable-background:new 0 0 512 512" xml:space="preserve" class=""><g><path d="M17.2 17c.542 3.365 4.758 4.84 4.8 8 .026 1.971-1 4.015-3 5-.333-1.764-1.083-5.138-3-6-1.75.821-3.292 4.112-4 6-1.206-1.064-2-3.086-2-5 0-3.44 3.075-8.041 7.2-8zM26.495 21.5c1.419 2.167-.381 5.553-2.542 5.5 3.522-3.979-3.262-5.896 1.017-9.999-.699 2.895 1.094 3.841 1.525 4.499zM8.047 27c-2.161.053-3.961-3.333-2.542-5.5.431-.658 2.224-1.604 1.525-4.5 4.279 4.104-2.505 6.021 1.017 10zM23 9h4l-1 5H6L5 9h4v2.5a.5.5 0 0 0 .5.5h1a.5.5 0 0 0 .5-.5V9h4v2.5a.5.5 0 0 0 .5.5h1a.5.5 0 0 0 .5-.5V9h4v2.5a.5.5 0 0 0 .5.5h1a.5.5 0 0 0 .5-.5zM2 2v5a1 1 0 0 0 1 1h26a1 1 0 0 0 1-1V2zm14 4.5a1.5 1.5 0 1 1 .001-3.001A1.5 1.5 0 0 1 16 6.5z" fill="#000000" opacity="1" data-original="#000000"></path></g></svg>