<svg xmlns="http://www.w3.org/2000/svg" version="1.1" xmlns:xlink="http://www.w3.org/1999/xlink" width="512" height="512" x="0" y="0" viewBox="0 0 64 64" style="enable-background:new 0 0 512 512" xml:space="preserve" class=""><g><path d="M51 .25H13A4.756 4.756 0 0 0 8.25 5v46A4.756 4.756 0 0 0 13 55.75h2.25V62A1.75 1.75 0 0 0 17 63.75h7A1.75 1.75 0 0 0 25.75 62v-6.25h12.5V62A1.75 1.75 0 0 0 40 63.75h7A1.75 1.75 0 0 0 48.75 62v-6.25H51A4.756 4.756 0 0 0 55.75 51V5A4.756 4.756 0 0 0 51 .25Zm-28.75 60h-3.5v-4.5h3.5Zm23 0h-3.5v-4.5h3.5Zm7-30h-3.5v-4.5h3.5Zm0-8h-3.5V9A1.75 1.75 0 0 0 47 7.25H17A1.75 1.75 0 0 0 15.25 9v38A1.75 1.75 0 0 0 17 48.75h30A1.75 1.75 0 0 0 48.75 47V33.75h3.5V51A1.252 1.252 0 0 1 51 52.25H13A1.252 1.252 0 0 1 11.75 51V5A1.252 1.252 0 0 1 13 3.75h38A1.252 1.252 0 0 1 52.25 5Zm-7-11.5v34.5h-26.5v-34.5Z" fill="#000000" opacity="1" data-original="#000000"></path><path d="M28 25.75h4.843l-3.327 5.322a1.75 1.75 0 1 0 2.968 1.855l5-8A1.75 1.75 0 0 0 36 22.25h-4.843l3.327-5.322a1.75 1.75 0 1 0-2.968-1.855l-5 8A1.75 1.75 0 0 0 28 25.75ZM26 41.75h12a1.75 1.75 0 0 0 0-3.5H26a1.75 1.75 0 0 0 0 3.5Z" fill="#000000" opacity="1" data-original="#000000"></path></g></svg>