<svg xmlns="http://www.w3.org/2000/svg" version="1.1" xmlns:xlink="http://www.w3.org/1999/xlink" width="512" height="512" x="0" y="0" viewBox="0 0 24 24" style="enable-background:new 0 0 512 512" xml:space="preserve" fill-rule="evenodd" class=""><g><path d="M20 8.75a.75.75 0 0 1 0-1.5h2a.75.75 0 0 1 0 1.5zM4 7.25a.75.75 0 0 1 0 1.5H2a.75.75 0 0 1 0-1.5zM20 16.25a.75.75 0 0 1 0-1.5h2a.75.75 0 0 1 0 1.5zM4 14.75a.75.75 0 0 1 0 1.5H2a.75.75 0 0 1 0-1.5z" fill="#000000" opacity="1" data-original="#000000"></path><path d="M4.75 18.25H4a.75.75 0 0 1-.75-.75V14a.75.75 0 0 1 .75-.75h.75zM4.75 10.75H4a.75.75 0 0 1-.75-.75V6.5A.75.75 0 0 1 4 5.75h.75zM19.25 13.25H20a.75.75 0 0 1 .75.75v3.5a.75.75 0 0 1-.75.75h-.75zM19.25 5.75H20a.75.75 0 0 1 .75.75V10a.75.75 0 0 1-.75.75h-.75zM18.25 5.5v13A2.25 2.25 0 0 1 16 20.75H8a2.25 2.25 0 0 1-2.25-2.25v-13A2.25 2.25 0 0 1 8 3.25h8a2.25 2.25 0 0 1 2.25 2.25zm-5.424 2.711a.188.188 0 0 0-.349-.118l-2.662 4.564a.19.19 0 0 0-.001.189.19.19 0 0 0 .163.094h1.553l-.356 2.849a.188.188 0 0 0 .349.118l2.662-4.564a.19.19 0 0 0 .001-.189.19.19 0 0 0-.163-.094H12.47z" fill="#000000" opacity="1" data-original="#000000"></path></g></svg>