<svg xmlns="http://www.w3.org/2000/svg" version="1.1" xmlns:xlink="http://www.w3.org/1999/xlink" width="512" height="512" x="0" y="0" viewBox="0 0 43.349 43.349" style="enable-background:new 0 0 512 512" xml:space="preserve" fill-rule="evenodd" class=""><g><path d="M20.91 43.35c-4.483-.688-8.304-4.526-6.453-12.671 1.874 2.718 2.556 1.282 2.556 1.282.113-9.23 7.1-11.539 7.1-11.539-2.09 4.719 2.046 4.85 2.329 10.205 1.704-.871 2.328-1.846 2.328-1.846 5.643 7.587 1.46 13.015-3.878 14.408 8.549-1.097 15.899-8.336 12.378-23.83-3.538 5.13-4.824 2.42-4.824 2.42C32.23 4.356 19.044 0 19.044 0c3.946 8.907-3.863 9.153-4.396 19.262-3.216-1.645-4.395-3.484-4.395-3.484C-1.554 31.653 9.43 42.523 20.91 43.349z" fill="#000000" opacity="1" data-original="#000000" class=""></path></g></svg>