<svg xmlns="http://www.w3.org/2000/svg" version="1.1" xmlns:xlink="http://www.w3.org/1999/xlink" width="512" height="512" x="0" y="0" viewBox="0 0 511.935 511.935" style="enable-background:new 0 0 512 512" xml:space="preserve" class=""><g><path d="M437.824 207.581C402.866 132.194 336.607 84.647 333.803 82.66l-20.137-14.273c-2.951 27.102-8.793 46.497-14.954 57.536-35.809-28.746-60.216-68.727-64.763-101.476L230.555 0l-20.137 14.272c-3.494 2.477-86.073 61.733-129.64 155.688-14.684 31.667-24.134 66.993-27.327 102.161-3.401 37.458.595 72.934 11.557 102.592 14.484 39.19 42.329 74.484 78.403 99.381 27.752 19.153 59.355 31.548 91.102 35.997 6.965 1.209 17.14 1.845 26.062 1.845 90.321 0 166.607-57.996 190.391-140.949 15.189-51.816 10.276-112.902-13.142-163.406zM255.942 481.935c-22.721 0-41.205-18.484-41.205-41.205 0-20.017 13.069-39.395 24.033-52.126 6.143-7.134 12.36-13.06 17.172-17.299 4.813 4.24 11.03 10.166 17.172 17.299 10.964 12.731 24.033 32.11 24.033 52.126 0 22.721-18.484 41.205-41.205 41.205zM326.46 450.5c.441-3.196.687-6.454.687-9.769 0-55.078-68.657-105.474-71.205-107.321-2.548 1.847-71.205 52.243-71.205 107.321 0 3.315.246 6.573.687 9.769-15.181-16.837-24.437-39.117-24.437-63.519 0-70.24 69.913-134.036 94.967-154.638 25.07 20.569 94.943 84.223 94.943 154.638 0 24.402-9.255 46.681-24.437 63.519zm95.693-87.867c-9.521 33.209-29.395 61.678-55.626 82.471 9.169-17.374 14.37-37.151 14.37-58.124 0-100.514-120.212-188.8-124.955-192.237 0 0-38.013 27.691-66.307 60.294-38.916 44.844-58.648 89.236-58.648 131.943 0 16.169 3.088 31.63 8.703 45.825-20.526-18.916-36.87-42.324-46.543-68.493C74.442 313.704 80.27 242.37 107.996 182.58c28.367-61.177 76.107-107.471 101.919-129.54 10.231 31.343 31.686 61.863 64.034 91.016 5.663 5.104 30.86 25.961 30.86 25.961 14.906-16.589 24.529-36.573 29.019-48.744 20.865 18.33 55.67 53.404 76.779 98.929 20.143 43.437 24.575 97.981 11.546 142.431z" fill="#000000" opacity="1" data-original="#000000"></path></g></svg>