<svg xmlns="http://www.w3.org/2000/svg" version="1.1" xmlns:xlink="http://www.w3.org/1999/xlink" width="512" height="512" x="0" y="0" viewBox="0 0 329.928 329.928" style="enable-background:new 0 0 512 512" xml:space="preserve" class=""><g><path d="M232.478 13.406c-24.56 0-48.827 9.248-67.511 25.279-18.689-16.032-42.956-25.279-67.516-25.279C42.806 13.406 0 56.212 0 110.857 0 176.912 45.99 217.286 115.604 278.4c5.95 5.224 12.091 10.614 18.41 16.202l.131.115 21.018 18.155c2.816 2.433 6.311 3.649 9.806 3.649s6.991-1.217 9.807-3.649l21.014-18.155.13-.114c41.606-36.796 72.801-64.966 95.371-92.44 26.36-32.088 38.637-61.101 38.637-91.305 0-54.646-42.805-97.452-97.45-97.452zM176.113 272.07l-11.146 9.629-11.143-9.625c-6.325-5.593-12.472-10.989-18.429-16.219C69.671 198.156 30 163.329 30 110.857c0-38.454 28.998-67.451 67.451-67.451 20.925 0 42.407 10.03 56.065 26.176a15.003 15.003 0 0 0 22.907-.002c13.652-16.145 35.131-26.174 56.056-26.174 38.452 0 67.449 28.997 67.449 67.451 0 49.295-44.741 91.279-123.815 161.213z" fill="#000000" opacity="1" data-original="#000000"></path><path d="M184.964 94.964h-40.001v40.001h-39.999v40h39.999v39.999h40.001v-39.999h40v-40h-40z" fill="#000000" opacity="1" data-original="#000000"></path></g></svg>