<svg xmlns="http://www.w3.org/2000/svg" version="1.1" xmlns:xlink="http://www.w3.org/1999/xlink" width="512" height="512" x="0" y="0" viewBox="0 0 512.031 512.031" style="enable-background:new 0 0 512 512" xml:space="preserve" class=""><g><path d="M407.201 151.185C407.201 67.821 339.38 0 256.016 0S104.83 67.821 104.83 151.185 172.651 302.37 256.015 302.37s151.186-67.821 151.186-151.185zm-209.836 36.202h30c0 10.394 8.456 18.85 18.85 18.85h19.265c10.73 0 19.46-8.73 19.46-19.46s-8.729-19.46-19.46-19.46h-18.928c-27.272 0-49.46-22.188-49.46-49.46 0-25.4 19.249-46.38 43.924-49.142V43.751h30v25.02c24.477 2.959 43.511 23.846 43.511 49.108h-30c0-10.742-8.739-19.481-19.48-19.481h-18.494c-10.73 0-19.46 8.729-19.46 19.459s8.73 19.46 19.46 19.46h18.928c27.272 0 49.46 22.188 49.46 49.459 0 25.4-19.249 46.38-43.924 49.142v24.965h-30v-24.927c-24.501-2.603-43.652-23.39-43.652-48.569zM355.727 302.387c-28.621 18.937-62.898 29.984-99.711 29.984s-71.091-11.046-99.711-29.984v65.663h-51.028v21.69l150.739 122.291L406.754 389.74v-21.69h-51.028v-65.663z" fill="#000000" opacity="1" data-original="#000000"></path></g></svg>