<svg xmlns="http://www.w3.org/2000/svg" version="1.1" xmlns:xlink="http://www.w3.org/1999/xlink" width="512" height="512" x="0" y="0" viewBox="0 0 24 24" style="enable-background:new 0 0 512 512" xml:space="preserve" class=""><g><path d="M18 6h-1V2a1 1 0 0 0-2 0v4H9V2a1 1 0 0 0-2 0v4H6a2 2 0 0 0-2 2v1.726c0 4.102 2.983 7.694 7 8.202V22a1 1 0 0 0 2 0v-4.07c3.945-.492 7-3.851 7-7.93V8a2 2 0 0 0-2-2zm-3.336 6.407-3.14 3.452c-.316.347-.83.003-.724-.484l.592-2.724a.5.5 0 0 0-.488-.606H9.637c-.403 0-.59-.576-.286-.88l3.041-3.04c.327-.326.822.034.707.513l-.553 2.288a.5.5 0 0 0 .486.617h1.33c.394 0 .587.551.302.864z" fill="#000000" opacity="1" data-original="#000000" class=""></path></g></svg>