<svg xmlns="http://www.w3.org/2000/svg" version="1.1" xmlns:xlink="http://www.w3.org/1999/xlink" width="512" height="512" x="0" y="0" viewBox="0 0 32 32" style="enable-background:new 0 0 512 512" xml:space="preserve" class=""><g><path d="M26.296 7.37h-3.519V2a1.5 1.5 0 0 0-3 0v5.37h-7.554V2a1.5 1.5 0 0 0-3 0v5.37H5.704a1.5 1.5 0 0 0 0 3h1.14v4.21c0 4.537 3.32 8.303 7.656 9.022V30a1.5 1.5 0 0 0 3 0v-6.398c4.336-.719 7.656-4.485 7.656-9.022v-4.21h1.14a1.5 1.5 0 0 0 0-3zm-4.14 7.21c0 3.395-2.761 6.156-6.156 6.156s-6.156-2.761-6.156-6.156v-4.21h12.312z" fill="#000000" opacity="1" data-original="#000000" class=""></path></g></svg>