<svg xmlns="http://www.w3.org/2000/svg" version="1.1" xmlns:xlink="http://www.w3.org/1999/xlink" width="512" height="512" x="0" y="0" viewBox="0 0 48 48" style="enable-background:new 0 0 512 512" xml:space="preserve" class=""><g><path d="m12 34.61-6.78 6.76a1 1 0 0 0 1.41 1.41L13.39 36A1 1 0 0 0 12 34.61z" fill="#000000" opacity="1" data-original="#000000"></path><path d="M29.84 22.56C43.53 8.87 40.68 11.25 44.46 9.36c.35-.18.17 0 3.37-4.82a1 1 0 0 0-.12-1.26l-3-3a1 1 0 0 0-1.25-.11L39 3.15c-.31.21-.23.18-1.76 3.23l-11.8 11.78-3.29-3.29A11.35 11.35 0 0 0 7.21.79a1 1 0 0 0-.34 1.63c5.62 5.63 5.56 5.39 5.56 6s-.07.52-3.25 3.69a1.09 1.09 0 0 1-1.51 0L2.42 6.87a1 1 0 0 0-1.63.34 11.36 11.36 0 0 0 14.09 14.94l3.28 3.29-1 1-1.53-1.54a1 1 0 0 0-1.57.2c-2.9 4.83-.47 1.92-12.57 14a5.22 5.22 0 1 0 7.38 7.38l10.4-10.4c5.11-3.06 5-2.51 2.28-5.27l1-1 16.66 16.68a5.15 5.15 0 0 0 7.28-7.28zM40.31 4.67l3.58-2.38 1.82 1.82-2.38 3.58-2.1 1-2-2zM2.19 9.47l4.06 4.06a3.17 3.17 0 0 0 4.35 0l2.93-2.93a3.09 3.09 0 0 0 0-4.35L9.47 2.19a9.36 9.36 0 1 1-7.28 7.28zM16.85 21.3a11.25 11.25 0 0 0 4.44-4.45L24 19.58 19.58 24zM7.5 45.06a3.22 3.22 0 0 1-4.56-4.56l9.78-9.77 4.55 4.55zM18.84 34 14 29.16l1.18-2 5.65 5.65zm-.23-6.2L38.05 8.38 39.62 10 20.18 29.39zm22 17.25L24 28.42 28.42 24C46.25 41.8 46 41 46 42.86a3.15 3.15 0 0 1-5.37 2.21z" fill="#000000" opacity="1" data-original="#000000"></path><path d="M43.55 42.17a1 1 0 1 0 .16 1.53 1 1 0 0 0-.16-1.53z" fill="#000000" opacity="1" data-original="#000000"></path></g></svg>