<?xml version="1.0" encoding="UTF-8" standalone="no"?>
<svg
   xmlns:dc="http://purl.org/dc/elements/1.1/"
   xmlns:cc="http://creativecommons.org/ns#"
   xmlns:rdf="http://www.w3.org/1999/02/22-rdf-syntax-ns#"
   xmlns:svg="http://www.w3.org/2000/svg"
   xmlns="http://www.w3.org/2000/svg"
   viewBox="0 0 745.54669 472.25333"
   height="472.25333"
   width="745.54669"
   xml:space="preserve"
   id="svg2"
   version="1.1"><metadata
     id="metadata8"><rdf:RDF><cc:Work
         rdf:about=""><dc:format>image/svg+xml</dc:format><dc:type
           rdf:resource="http://purl.org/dc/dcmitype/StillImage" /></cc:Work></rdf:RDF></metadata><defs
     id="defs6" /><g
     transform="matrix(1.3333333,0,0,-1.3333333,0,472.25333)"
     id="g10"><g
       transform="scale(0.1)"
       id="g12"><path
         id="path14"
         style="fill:#ffffff;fill-opacity:1;fill-rule:evenodd;stroke:none"
         d="M -0.0234375,3541.86 H 5591.58 V -0.0429688 H -0.0234375 V 3541.86" /><path
         id="path16"
         style="fill:#ed1c24;fill-opacity:1;fill-rule:evenodd;stroke:none"
         d="m 4333.28,2547.46 c -0.8,-9.3 -36.8,0 -56.9,-6.2 30.6,-36.3 57.5,-70.3 81.31,-108.61 -35.1,4.01 -83.91,35.71 -135.81,28.91 -6.2,-1.9 5.1,-39.6 11.9,-67.7 10.2,-39.7 -35.1,12.5 -52.1,23 -67.5,44.2 -205.8,67.1 -196.99,191 -36.6,22.7 -74.6,45.1 -113.71,66.6 -104,-53.8 -203.5,-128.4 -214,-247.21 -14.5,-144.19 118.5,-292.5 314.9,-253.09 66.6,12.8 121.3,54.7 180.9,85.59 60.9,32.61 131.8,56.71 200.1,63.5 58.7,6.5 210.3,-8.79 208.9,50.81 -0.6,62 -83,19.8 -127.5,19.8 30.91,17.6 40.81,57.3 54.7,93.5 -29.2,9.1 -49.6,2.6 -74.6,-3.4 17.9,41.7 37.4,87.1 60.4,123.9 -24.4,3.4 -55.9,-1.7 -82.8,-11 23.5,48.7 48.8,100 82.8,137.69 -24.1,0 -48.8,0 -73.7,0 43.61,42.81 63.5,114.51 145.1,120.51 -7.9,32.59 -62.6,10.19 -90.99,39.69 54.69,19.8 96.09,55.5 173.49,53.31 -4.8,10.7 -37.1,51 -53,73.4 40.3,-4 137.8,-9.41 182.01,-33.21 36.29,36.9 101.49,48.8 173.99,33.21 -15.8,-18.4 -44.2,-23.3 -53.8,-46.21 64.6,-53.59 161.81,-75.1 241.81,-113.99 0,-62.9 -42.31,-93.2 -80.51,-133.8 -15.1,36 -68.3,28.9 -108,38.6 -9.4,-4.01 -10,-18.2 -11.09,-30.1 70.89,-2.2 125.89,-37.1 185.69,-21.8 55.5,15 53.3,93 114.2,94.4 -34.6,-28.31 -17.29,-108.31 -60.1,-127.3 -100,-14.7 -157,38.89 -232.69,26.1 5.99,-40.5 63.79,-47.3 95,-24.4 3.4,-22.9 31.69,-10.5 36.19,-28.3 8.5,-32.91 -34.8,-67.8 -53.5,-83.6 -2.6,47.6 -78.6,60.1 -100.9,36.8 -56.7,-59.2 117.6,-82.8 161.5,-147.4 -13.6,0 -34,-2.3 -48.2,-2.3 0.31,-28.91 42.6,-19.5 62.1,-17.5 39.1,5.6 83.6,58.1 93.8,106.8 8.5,40.9 -26.6,99.5 35.5,113.4 38.8,2.6 41.6,30.4 71.7,40.6 31.2,16.7 -14.5,-20.5 -3.7,-42.6 3.1,0 5.1,0.6 7.7,0.6 20.4,0 41.1,-10.8 52.1,-28.3 14.5,8.5 43.4,-6.8 47.4,-32.91 -19,5.11 -32.9,8.5 -40,-2.89 -10.79,-20.9 -9.4,-39.4 0,-50.11 5.9,-6 12.5,-38 12.5,-59.79 -44.8,46.7 -90.5,-54.2 -127.9,-78.6 8,-16.4 28.9,-20.4 47.4,-25.8 -12.5,-22.9 -47.4,-20.4 -72.6,-29.4 1.41,-19.91 51,-28.41 26.41,-32.9 -29.01,-4.3 -60.71,-20.7 -87.61,-8.2 -20.4,-5.1 26.9,-30.41 7.3,-33.51 -62.6,-12.99 -174.9,26.41 -171.5,-13.29 7.4,-60.7 76,-24.4 114,-16.51 92.4,18.81 245.5,61.61 282.3,-82.39 -59.2,52.7 -34.3,-51.3 -68,-77.7 -17.6,-11.91 0,31.2 -11.3,35.7 -48.5,16.39 -46,-39.7 -76.3,-50.7 -25.8,144.8 -147.1,1.9 -208.3,-24.41 -3.2,16.41 -3.4,17 -5.09,38.81 -30.41,-9.9 -48.51,-38.81 -72.6,-54.7 -12.5,12.5 -8.81,36.9 -14.5,54.7 -32.61,-18.4 -60.11,-42.2 -93.81,-59.2 -6.5,13.6 -2,31.4 -13.9,52.7 -45.9,34 -146.8,13.6 -221.9,17.9 3.1,-40.6 86.1,-22.71 124.4,-34.3 42.8,-14.8 98.1,-64.11 79.9,-137.8 -24.3,-92.4 -277.8,-96.9 -145.09,-182.3 29.5,-1.1 75.69,39.69 158.19,19.9 25.2,-5.71 -5.1,-17 -11.1,-27.8 13.9,-28.41 53.9,-28.91 70.31,-55.8 -13.61,-8 -52.71,3.39 -49.9,-32.9 -91.51,5.9 -284.91,0.5 -286.81,3.1 -10.5,19.3 -23,45.09 -33.8,71.1 -19.8,3.39 -65.2,-13.6 -81,-7.6 -25.6,7.6 43.61,58.69 48.1,79.6 -5.9,16.5 -33.7,12.5 -53.2,14.49 23.8,44.81 116.5,67.5 107.4,98.41 -10.5,44.69 -69.2,46.19 -110.29,61.8 20.39,-106.6 -156.71,-101.5 -196.41,-183.2 -1.7,19.89 -8.5,36 -16.49,48.2 -21.51,-15.9 -51.81,-30.61 -63.21,-57 -11,8 1.4,37.7 -23.8,37.7 -51.9,-0.5 -105.99,-50.1 -98.09,-63.7 19.6,-28.7 62.69,25.5 82.5,20.1 15.59,-5.1 16.49,-17.6 33.99,-21.6 17.9,-4.8 36.3,0.6 48.2,-8.5 -1.1,-7.9 -12.4,-15.31 -20.9,-16.4 7.9,-30.6 49.3,-17.9 62.3,-43.6 -20.4,0 -36.8,-13.4 -51.9,-32.9 -55.2,2.5 -287.4,-4 -297.3,3.7 -16.5,11.3 -23.5,22.09 -26.89,36.2 -13.91,48.2 37.39,54.7 55.19,89.3 -11,15.59 -43.6,17 -65.7,21.59 22.9,35.71 88.7,37.71 124.4,62.61 -13,12.5 -27.5,21.3 -53.79,19.89 32.79,61.8 108.49,41.61 158.69,76.5 57.8,40.21 50.7,110.81 82.5,183.11 -135.79,-40 -246.6,-112.5 -409.3,-112.5 -182.3,0 -308.2,104 -329.1,253.1 -32.89,248.3 153,386.9 335.3,467.4 -86.2,93.6 -176.3,170.1 -160.19,320.39 34.6,333.31 707.59,352.61 705,-12.79 -0.81,-175.21 -163,-243.21 -286.91,-313.8 20.5,-17 55.9,-42.8 65.2,-46.8 10.5,-5.11 38.31,4.89 61.31,1.5 102.29,-12 141.09,-96.11 213.09,-148.9 z m -260.5,500.4 c 16.5,128.89 -77.1,186.5 -182.5,167.2 -178,-33.5 -124.69,-307.31 -6,-379.6 80.5,37.5 175.2,110.9 188.5,212.4 z m 884.7,-149.2 c -42.2,0 -85.9,1.2 -92.9,-33.7 28.9,0.29 38.2,-17.8 72,-13 -14.8,26.29 5.61,33.7 20.9,46.7 z m 127.9,-69.11 c -17,3.41 -22.4,35.7 -39.7,20.41 -3.7,-21.3 28.6,-37.71 39.7,-20.41" /><path
         id="path18"
         style="fill:#231f20;fill-opacity:1;fill-rule:evenodd;stroke:none"
         d="m 1395.19,3066.26 -139.71,-130.1 -12.79,15.8 c -38.21,44.79 -79.11,89.9 -130.91,118.19 -45.1,23.61 -97,30.41 -146.592,30.41 -89.602,1.69 -182.008,-37.2 -233.805,-113.7 -67.203,-99.5 -81.102,-224.5 -81.406,-341.9 0.304,-115.6 13.906,-237.5 78.507,-335.6 47.594,-72.5 134.696,-111.4 221.399,-110 50.207,-0.2 100.397,10 145.997,33.5 54.71,28.89 100.9,72 143.7,116.8 l 15,15.59 128.4,-137.79 -11,-14.5 c -53.3,-66.6 -117.4,-125.8 -195,-162.71 -77.1,-37.39 -163,-50.1 -248.605,-50.1 -141.797,-2.59 -290.898,52.1 -377.898,168.91 -102.891,136.4 -128.399,312.99 -128.993,479.1 0.594,166.9 32.297,344.09 140.297,475.3 97,118.79 253.696,173.5 403.407,171 80.492,0 162.992,-10.8 235.292,-47.1 75.11,-38.8 134.61,-100.61 184.5,-167.21 l 10.21,-13.89" /><path
         id="path20"
         style="fill:#231f20;fill-opacity:1;fill-rule:evenodd;stroke:none"
         d="m 1746.98,3104.25 h -217.4 v 218.21 h 217.4 v -218.21" /><path
         id="path22"
         style="fill:#231f20;fill-opacity:1;fill-rule:evenodd;stroke:none"
         d="m 2489.38,2108.16 c -68.6,-60.7 -157.6,-101.2 -249.69,-97.5 -65.51,0 -135.21,14.7 -181.41,62.59 -48.8,48.8 -61.3,120.21 -61.3,186 v 560.9 h -121.3 v 172.71 h 123.3 l 9.6,238.6 201.3,41.1 -2.8,-279.7 h 252 v -172.71 h -252.6 v -494.9 c 0,-28.29 0.6,-57.29 6.8,-83.59 7.7,-30.4 37.4,-51 69.2,-50.5 49.9,0 91,33.2 131.2,58.99 l 18.4,13.61 68.6,-146.3 -11.3,-9.3" /><path
         id="path24"
         style="fill:#231f20;fill-opacity:1;fill-rule:evenodd;stroke:none"
         d="m 3393.68,2992.86 -317.5,-824.61 c -7.4,-21.89 -16.49,-44 -24.7,-64.69 -11,-27.5 -22.1,-55.2 -32.9,-82.2 -25.49,-64 -50.7,-125.8 -78.49,-188.5 l -83.61,-185.9 h -227.3 l 10.4,22.4 c 4.6,9 10,18.39 15.11,27.69 20.09,40.6 40.19,80.81 58.89,121.91 21.61,47.9 44.01,96.1 67.2,143.69 16.41,36.9 32.9,73.71 47.31,112.01 l 0.59,1.2 -345.8,917 h 229.31 l 197.59,-568.11 c 1.4,-6.79 3.9,-13.29 6.8,-20.39 3.4,-10.5 7.1,-22.4 10.5,-33.2 3.9,-11.91 6.8,-22.91 11.01,-34.3 l 0.29,2.3 c 9.1,28.9 17.6,57.8 30.1,85.59 l 204.3,568.11 h 220.9" /><path
         id="path26"
         style="fill:#231f20;fill-opacity:1;fill-rule:evenodd;stroke:none"
         d="m 2440.59,243.457 h -209.21 l -1.9,18.203 c -2.6,38.496 -3.7,77.399 -4.6,116.195 v 5.102 c -77.6,-94.703 -187.1,-166.699 -312.9,-162.098 -76,-1.203 -155.1,22.598 -207.2,79.895 -56.4,59.801 -74.9,143.703 -74.3,223.406 v 685.1 h 210.9 V 564.957 c 0.6,-40.301 4.5,-83.602 29.5,-117.902 17.8,-25.797 49.6,-36.899 79.9,-35.797 16.5,0 33.5,1.996 48.8,7.398 98.3,37.203 158.7,131.801 215.7,215.403 v 575.201 h 212.6 l -1.7,-765.604 c 0.6,-60.402 4.5,-119.101 11.91,-177.797 l 2.5,-22.402" /><path
         id="path28"
         style="fill:#231f20;fill-opacity:1;fill-rule:evenodd;stroke:none"
         d="m 2828.68,1320.36 h -219.4 v 209.19 h 219.4 v -209.19" /><path
         id="path30"
         style="fill:#231f20;fill-opacity:1;fill-rule:evenodd;stroke:none"
         d="m 3224.38,243.457 h -207.8 V 1529.55 h 207.8 V 243.457" /><path
         id="path32"
         style="fill:#231f20;fill-opacity:1;fill-rule:evenodd;stroke:none"
         d="m 4295.09,243.457 h -212.9 l -3.41,17.602 c -5.4,42.195 -9.09,84.496 -10.5,126.699 -35.1,-42.801 -74.6,-81.899 -124.2,-110.801 -59.2,-35.398 -129.5,-49.902 -198.1,-49.301 -97.2,-1.5 -195.89,34.801 -258.5,106.504 -73.7,82.5 -102.29,192.797 -112.79,298.797 -2.61,29.5 -3.21,59.297 -3.21,89 0,130.699 23.61,269.602 110.6,375.903 72.61,92.1 195.9,139.5 315.8,137.8 60.6,0 124.1,-10.2 178.8,-36.6 31.5,-15.6 59.9,-36.6 84.2,-60.4 -1.1,17 -1.4,34 -1.4,51.3 v 339.59 h 221.11 V 437.055 c 0,-7.895 0.59,-16.395 0.59,-23.801 0.5,-12.996 1.41,-26.899 2,-40.199 1.4,-33.996 4.51,-67.797 9.91,-102.098 z m -457.5,176.602 c 106.49,39.398 171.99,136.398 224.69,227.398 3.4,24.402 5.1,49.301 4.6,74.5 0,53.902 -4,108.598 -19.9,160.699 -25.5,93.903 -113.3,177.504 -219.9,177.504 -64.1,1.4 -129.3,-30.3 -163,-83.105 -49.3,-73.696 -59.3,-164.7 -60.1,-250.496 1.4,-82.2 4.2,-168.102 46.21,-241.805 24.39,-46.195 77.09,-75.395 131.19,-73.496 19.3,0 37.5,2.902 56.21,8.801" /><path
         id="path34"
         style="fill:#231f20;fill-opacity:1;fill-rule:evenodd;stroke:none"
         d="m 5156.48,1146.66 -68.3,-176.906 -20.09,11.305 c -68.31,43.691 -148.31,77.701 -231.01,75.101 -42.3,-0.5 -85.9,-7.3 -120.8,-33.4 -26.9,-21.3 -39.7,-56.701 -39.09,-89.303 -1.21,-27.5 11.29,-57.301 37.09,-70.297 15,-7.902 31.8,-13.902 49.9,-14.801 h 2 l 0.8,-0.504 c 23.9,-5.398 48.21,-7.101 72.6,-9.398 83.11,-11 170.7,-30.898 234.7,-88.102 55.91,-49.601 77.1,-127.898 76.31,-201.296 1.39,-89 -31.51,-182.301 -100.9,-241.204 -74.91,-64.601 -175.81,-86.195 -272.71,-86.195 -117.4,-2.004 -234.2,31.5 -334.2,93.598 l -14.8,9.297 76,170.703 19,-13.102 c 74.5,-47.601 159,-86.402 248.6,-85.297 42.8,0 89.01,8.801 123.3,36.301 27.81,21.199 42.81,56.695 42.2,91.797 0.61,30.102 -6.49,61.801 -29.2,82.199 -30.9,25.199 -71.7,32.903 -110,37.699 -38.8,4.602 -77.1,9.102 -115.9,15 -37.7,6.602 -73.7,21.903 -104.9,41.102 -75.9,44.598 -110.5,135 -108.8,219.398 -1.7,87.105 32.31,176.605 98.91,232.805 72.59,62.1 170.9,85 265,85 108,0.6 217.5,-26.9 309.29,-83 l 15,-8.5" /><path
         id="path36"
         style="fill:#231f20;fill-opacity:1;fill-rule:evenodd;stroke:none"
         d="m 1741.08,2026.46 h -206.1 v 966.4 h 206.1 v -966.4" /><path
         id="path38"
         style="fill:#231f20;fill-opacity:1;fill-rule:evenodd;stroke:none"
         d="m 2821.58,243.457 h -205.8 v 965.803 h 205.8 V 243.457" /><path
         id="path40"
         style="fill:#231f20;fill-opacity:1;fill-rule:evenodd;stroke:none"
         d="m 1437.69,1289.46 -143.41,-131.8 -13.3,14.5 c -43.7,47 -89,93.8 -146.29,121.9 -49.6,24.6 -105.41,30.3 -160.112,30.3 -97.5,1.39 -200.398,-33.5 -261.703,-114 -72.789,-94.4 -89.297,-219.403 -90.398,-336.704 1.101,-121.898 15.609,-253.199 90.398,-353.5 60.703,-82.199 166.109,-116.5 265.609,-114.496 38.896,0 78.296,1.098 115.996,11 36.8,9.399 71.7,27.195 104.9,45.395 v 374.703 h 219.9 V 346.66 l -10.5,-6.203 c -138.3,-74.598 -291.9,-123.598 -450.1,-119.598 -156.797,-2.605 -322.899,48.098 -427.805,170 -114.797,130.098 -149.094,309.895 -149.094,479.399 -0.5,168.902 38.899,347.502 154.203,475.902 106.891,120.2 272.5,172.9 430.594,172.09 88.512,0 179.502,-12.5 260.302,-50.79 79.3,-35.7 145.1,-95.5 199.2,-163.2 l 11.61,-14.8" /></g></g></svg>