<?xml version="1.0" encoding="UTF-8" standalone="no"?>
<svg
   xmlns:dc="http://purl.org/dc/elements/1.1/"
   xmlns:cc="http://creativecommons.org/ns#"
   xmlns:rdf="http://www.w3.org/1999/02/22-rdf-syntax-ns#"
   xmlns:svg="http://www.w3.org/2000/svg"
   xmlns="http://www.w3.org/2000/svg"
   viewBox="0 0 174.84 211.28"
   height="211.28"
   width="174.84"
   xml:space="preserve"
   id="svg2"
   version="1.1"><metadata
     id="metadata8"><rdf:RDF><cc:Work
         rdf:about=""><dc:format>image/svg+xml</dc:format><dc:type
           rdf:resource="http://purl.org/dc/dcmitype/StillImage" /></cc:Work></rdf:RDF></metadata><defs
     id="defs6" /><g
     transform="matrix(1.3333333,0,0,-1.3333333,0,211.28)"
     id="g10"><g
       transform="scale(0.1)"
       id="g12"><path
         id="path14"
         style="fill:#293b84;fill-opacity:1;fill-rule:nonzero;stroke:none"
         d="m 198.539,3.71875 h -55.504 c 10,8.50005 11.051,17.00005 11.051,30.28125 v 56.0391 c 0,13.5429 -1.051,21.7809 -11.051,30.2699 h 31.043 c 3.938,0 6.57,0.543 9.473,3.722 v -15.672 c 11.832,9.032 28.137,15.942 49.969,15.942 35.238,0 52.082,-15.41 52.082,-46.7502 V 34 c 0,-13.2812 0.515,-21.7812 10.777,-30.28125 H 241.148 C 251.137,12.2188 251.93,20.4492 251.93,34 v 31.0703 c 0,24.6992 -5.258,37.4417 -27.617,37.4417 -24.465,0 -36.825,-13.0003 -36.825,-38.762 V 34 c 0,-13.2812 0.793,-21.7812 11.051,-30.28125" /><path
         id="path16"
         style="fill:#293b84;fill-opacity:1;fill-rule:nonzero;stroke:none"
         d="M 438.445,3.19141 C 428.188,3.19141 411.891,0 390.051,0 c -43.656,0 -65.754,20.9688 -65.754,60.5586 0,39.3125 26.305,63.7304 68.91,63.7304 42.082,0 64.18,-21.25 64.18,-62.1484 0,-4.5117 -0.27,-9.0195 -0.789,-13.8008 -3.676,2.3907 -7.102,2.6485 -10.793,2.6485 h -2.098 -83.641 c 0.27,-18.5781 13.153,-26.8164 40.508,-26.8164 18.414,0 33.664,3.4375 48.653,12.4883 V 2.12109 c -4.469,0.52735 -7.887,1.07032 -10.782,1.07032 M 421.879,73.0313 c -0.531,18.0703 -10.781,27.3667 -30.77,27.3667 -19.992,0 -30.507,-9.0386 -31.043,-27.3667 h 61.813" /><path
         id="path18"
         style="fill:#293b84;fill-opacity:1;fill-rule:nonzero;stroke:none"
         d="m 574.723,124.301 c 40.765,0 63.644,-22.313 63.644,-62.1604 C 638.367,24.9688 612.859,0 577.348,0 554.988,0 538.691,5.30859 527.641,16.7305 527.109,4.25 523.961,3.71875 512.652,3.71875 h -24.73 c 8.949,7.44145 10.519,15.94145 10.519,29.75005 V 130.41 c 0,12.75 -0.789,20.981 -11.043,31.34 h 46.821 c -2.11,-1.602 -2.367,-3.191 -2.367,-5.578 v -3.723 -44.879 c 10.257,11.149 24.718,16.731 42.871,16.731 m 28.664,-62.1604 c 0,26.0391 -12.356,39.5704 -33.93,39.5704 -22.359,0 -36.297,-14.8594 -36.297,-39.5704 0,-26.0195 12.371,-39.832 33.93,-39.832 22.621,0 36.297,15.4102 36.297,39.832" /><path
         id="path20"
         style="fill:#293b84;fill-opacity:1;fill-rule:nonzero;stroke:none"
         d="m 746.09,124.301 c 44.441,0 68.906,-22.313 68.906,-62.1604 C 814.996,24.6992 787.113,0 738.727,0 c -44.192,0 -68.918,22.5703 -68.918,61.0898 0,39.0392 27.882,63.2112 76.281,63.2112 M 705.844,60.2891 c 0,-23.3672 12.883,-36.3907 35.5,-36.3907 23.945,0 37.625,14.3516 37.625,38.2422 0,24.9688 -12.371,38.2504 -34.727,38.2504 -24.199,0 -38.398,-14.3402 -38.398,-40.1019" /><path
         id="path22"
         style="fill:#293b84;fill-opacity:1;fill-rule:nonzero;stroke:none"
         d="m 912.281,23.8984 c 15.242,0 23.407,5.3125 23.407,13.0118 0,8.5117 -9.473,11.6992 -26.571,13.2812 -43.125,3.7188 -64.172,8.5078 -64.172,36.1172 0,25.5004 22.09,37.9924 67.063,37.9924 19.207,0 36.297,-3.981 51.035,-3.981 h 3.672 l -8.938,-30.2887 c -18.933,7.1679 -36.816,11.4177 -54.707,11.4177 -14.199,0 -22.09,-5.5701 -22.09,-13.0076 0,-10.6211 11.047,-10.3594 28.926,-11.9531 41.563,-3.7188 61.809,-9.5586 61.809,-36.1094 0,-24.9687 -22.09,-40.3671812 -63.391,-40.3671812 -19.199,0 -34.187,3.4375012 -44.969,3.4375012 -3.156,0 -6.574,-0.51953 -10.519,-1.58984 l -7.891,36.91012 c 24.981,-9.8203 47.344,-14.8711 67.336,-14.8711" /><path
         id="path24"
         style="fill:#293b84;fill-opacity:1;fill-rule:nonzero;stroke:none"
         d="m 1044.31,31.082 c 0,-10.6328 0.53,-18.5937 10.78,-27.36325 H 999.594 C 1008.8,11.1602 1010.91,19.6484 1010.91,34 v 96.41 c 0,13.801 -1.84,21.77 -11.316,31.328 h 46.826 c -1.85,-1.847 -2.11,-4.238 -2.11,-7.156 v -2.121 -44.902 c 8.68,9.562 22.35,16.73 44.98,16.73 35.76,0 52.86,-15.117 52.86,-46.7382 V 34 c 0,-13.2812 0.53,-21.7891 10.78,-30.28125 h -55.23 c 10,8.49215 10.79,16.73045 10.79,30.28125 v 31.0703 c 0,24.711 -5.26,37.4497 -27.63,37.4497 -24.71,0 -36.55,-13.0083 -36.55,-38.77 V 34 31.082" /><path
         id="path26"
         style="fill:#293b84;fill-opacity:1;fill-rule:nonzero;stroke:none"
         d="m 1081.73,1052.76 229.57,27.57 -206.05,24.69 133.16,170.68 -181.64,-144.42 143.59,182.84 -181.07,-145 143.59,182.85 -180.794,-145.28 143.874,182.56 -180.788,-145.28 143.868,182.57 -181.067,-145 143.587,182.85 -181.076,-145 143.026,183.42 -171.631,-136.54 -25.664,218.3 -27.293,-231.83 -26.504,231.83 -26.496,-231.83 -26.512,231.83 -26.113,-231.83 -26.094,231.83 -26.113,-231.83 -26.102,231.83 -26.508,-231.83 -26.5,231.83 -26.503,-231.83 -27.309,231.83 -25.117,-213.78 -164.891,131.17 143.031,-183.41 -181.078,145 143.586,-182.85 -181.066,145 L 376.5,1243.13 195.707,1388.42 339.59,1205.85 158.789,1351.13 302.379,1168.29 121.309,1313.28 264.902,1130.44 83.2617,1274.87 214.941,1106.09 0,1080.33 229.57,1052.76 0,1026 229.57,999.23 0,972.473 229.57,946.109 0,919.75 229.57,893.379 0,867.023 229.57,840.258 0,813.492 229.57,786.734 0,759.156 215.523,733.324 81.8906,562.059 263.531,706.488 119.941,523.641 301.012,668.637 157.422,485.789 338.219,631.07 194.34,448.512 375.141,593.793 231.258,411.23 412.34,556.23 268.75,373.371 449.82,518.379 306.793,334.961 473.129,467.281 498.168,254.148 525.477,485.98 551.98,254.148 578.48,485.98 604.988,254.148 631.09,485.98 657.203,254.148 683.297,485.98 709.41,254.148 735.922,485.98 762.418,254.148 788.922,485.98 816.215,254.148 841.91,472.672 1010.49,338.551 867.457,521.969 1048.54,376.969 904.945,559.82 1086.02,414.82 942.152,597.379 1122.94,452.102 979.066,634.664 1159.86,489.379 1016.27,672.23 l 181.08,-145 -143.61,182.852 181.65,-144.434 -131.57,168.653 207.48,24.855 -229.57,27.578 229.57,26.758 -229.57,26.766 229.57,26.765 -229.57,26.356 229.57,26.371 -229.57,26.359 229.57,26.364 -229.57,26.757 229.57,26.77 z m -654.812,92.79 c 6.051,0 10.965,-4.95 10.965,-11.06 0,-6.11 -4.914,-11.07 -10.965,-11.07 -6.051,0 -10.957,4.96 -10.957,11.07 0,6.11 4.906,11.06 10.957,11.06 m -10.945,-67.01 c 7.836,0 14.199,-6.42 14.199,-14.34 0,-7.92 -6.363,-14.34 -14.199,-14.34 -7.844,0 -14.2,6.42 -14.2,14.34 0,7.92 6.356,14.34 14.2,14.34 m -6.801,-67.49 c 10.129,0 18.336,-8.29 18.336,-18.511 0,-10.219 -8.207,-18.512 -18.336,-18.512 -10.125,0 -18.332,8.293 -18.332,18.512 0,10.221 8.207,18.511 18.332,18.511 m -40.731,52.4 c 4.84,0 8.77,-3.97 8.77,-8.86 0,-4.89 -3.93,-8.86 -8.77,-8.86 -4.851,0 -8.785,3.97 -8.785,8.86 0,4.89 3.934,8.86 8.785,8.86 M 351.48,996.918 c 6.317,0 11.442,-5.168 11.442,-11.547 0,-6.391 -5.125,-11.562 -11.442,-11.562 -6.32,0 -11.441,5.171 -11.441,11.562 0,6.379 5.121,11.547 11.441,11.547 m -20.089,55.102 c 3.75,0 6.797,-3.08 6.797,-6.87 0,-3.79 -3.047,-6.86 -6.797,-6.86 -3.758,0 -6.801,3.07 -6.801,6.86 0,3.79 3.043,6.87 6.801,6.87 M 291.109,906.781 c 0,6.016 4.844,10.899 10.801,10.899 5.973,0 10.801,-4.883 10.801,-10.899 0,-6.019 -4.828,-10.902 -10.801,-10.902 -5.957,0 -10.801,4.883 -10.801,10.902 m 19.68,-78.679 c -3.758,0 -6.801,3.066 -6.801,6.859 0,3.789 3.043,6.871 6.801,6.871 3.75,0 6.805,-3.082 6.805,-6.871 0,-3.793 -3.055,-6.859 -6.805,-6.859 m 0,143.91 c -3.758,0 -6.801,3.066 -6.801,6.859 0,3.801 3.043,6.867 6.801,6.867 3.75,0 6.805,-3.066 6.805,-6.867 0,-3.793 -3.055,-6.859 -6.805,-6.859 M 331.391,761.82 c -3.758,0 -6.801,3.067 -6.801,6.856 0,3.789 3.043,6.875 6.801,6.875 3.75,0 6.797,-3.086 6.797,-6.875 0,-3.789 -3.047,-6.856 -6.797,-6.856 m 1.839,144.95 c 0,8.632 6.93,15.617 15.481,15.617 8.539,0 15.469,-6.985 15.469,-15.617 0,-8.629 -6.93,-15.633 -15.469,-15.633 -8.551,0 -15.481,7.004 -15.481,15.633 m 18.25,-89.86 c -6.32,0 -11.441,5.18 -11.441,11.563 0,6.375 5.121,11.547 11.441,11.547 6.317,0 11.442,-5.172 11.442,-11.547 0,-6.383 -5.125,-11.563 -11.442,-11.563 m 8.176,-57.668 c 0,4.895 3.934,8.86 8.785,8.86 4.84,0 8.77,-3.965 8.77,-8.86 0,-4.89 -3.93,-8.855 -8.77,-8.855 -4.851,0 -8.785,3.965 -8.785,8.855 m 17.645,-75.691 c -3.762,0 -6.805,3.074 -6.805,6.875 0,3.789 3.043,6.855 6.805,6.855 3.75,0 6.801,-3.066 6.801,-6.855 0,-3.801 -3.051,-6.875 -6.801,-6.875 m 0,432.999 c -3.762,0 -6.805,3.07 -6.805,6.87 0,3.79 3.043,6.86 6.805,6.86 3.75,0 6.801,-3.07 6.801,-6.86 0,-3.8 -3.051,-6.87 -6.801,-6.87 M 406.41,927.07 c 11.11,0 20.117,-9.101 20.117,-20.312 0,-11.215 -9.007,-20.317 -20.117,-20.317 -11.113,0 -20.121,9.102 -20.121,20.317 0,11.211 9.008,20.312 20.121,20.312 M 390.84,821.289 c 0,10.231 8.207,18.512 18.332,18.512 10.129,0 18.336,-8.281 18.336,-18.512 0,-10.219 -8.207,-18.5 -18.336,-18.5 -10.125,0 -18.332,8.281 -18.332,18.5 m 10.933,-71.644 c 0,7.918 6.356,14.335 14.2,14.335 7.836,0 14.199,-6.417 14.199,-14.335 0,-7.922 -6.363,-14.348 -14.199,-14.348 -7.844,0 -14.2,6.426 -14.2,14.348 m 14.188,-70.293 c 0,6.113 4.906,11.054 10.957,11.054 6.051,0 10.965,-4.941 10.965,-11.054 0,-6.114 -4.914,-11.067 -10.965,-11.067 -6.051,0 -10.957,4.953 -10.957,11.067 M 439.82,620.23 c -3.761,0 -6.797,3.075 -6.797,6.875 0,3.79 3.036,6.864 6.797,6.864 3.75,0 6.801,-3.074 6.801,-6.864 0,-3.8 -3.051,-6.875 -6.801,-6.875 m 0,559.64 c -3.761,0 -6.797,3.07 -6.797,6.87 0,3.79 3.036,6.86 6.797,6.86 3.75,0 6.801,-3.07 6.801,-6.86 0,-3.8 -3.051,-6.87 -6.801,-6.87 m 65.36,23.57 c 5.48,0 9.914,-4.48 9.914,-10 0,-5.53 -4.434,-10.01 -9.914,-10.01 -5.469,0 -9.91,4.48 -9.91,10.01 0,5.52 4.441,10 9.91,10 m -8.399,-44.77 c 7.239,0 13.121,-5.93 13.121,-13.25 0,-7.32 -5.882,-13.25 -13.121,-13.25 -7.25,0 -13.121,5.93 -13.121,13.25 0,7.32 5.871,13.25 13.121,13.25 m -10.465,-66.21 c 9.754,0 17.653,-7.99 17.653,-17.83 0,-9.85 -7.899,-17.83 -17.653,-17.83 -9.746,0 -17.656,7.98 -17.656,17.83 0,9.84 7.91,17.83 17.656,17.83 m -6.726,-73.96 c 10.879,0 19.711,-8.91 19.711,-19.91 0,-10.992 -8.832,-19.906 -19.711,-19.906 -10.891,0 -19.723,8.914 -19.723,19.906 0,11 8.832,19.91 19.723,19.91 m -0.707,-85.691 c 14.219,0 25.746,-11.641 25.746,-26.008 0,-14.36 -11.527,-26 -25.746,-26 -14.235,0 -25.762,11.64 -25.762,26 0,14.367 11.527,26.008 25.762,26.008 M 459.867,815.238 c 0,11.004 8.832,19.914 19.723,19.914 10.879,0 19.711,-8.91 19.711,-19.914 0,-10.988 -8.832,-19.91 -19.711,-19.91 -10.891,0 -19.723,8.922 -19.723,19.91 m 8.793,-76.023 c 0,9.832 7.91,17.812 17.656,17.812 9.754,0 17.653,-7.98 17.653,-17.812 0,-9.856 -7.899,-17.832 -17.653,-17.832 -9.746,0 -17.656,7.976 -17.656,17.832 m 15,-70.801 c 0,7.313 5.871,13.242 13.121,13.242 7.239,0 13.121,-5.929 13.121,-13.242 0,-7.316 -5.882,-13.242 -13.121,-13.242 -7.25,0 -13.121,5.926 -13.121,13.242 m 11.61,-48.019 c 0,5.527 4.441,10 9.91,10 5.48,0 9.914,-4.473 9.914,-10 0,-5.528 -4.434,-10.008 -9.914,-10.008 -5.469,0 -9.91,4.48 -9.91,10.008 m 20.281,-44.586 c -3.758,0 -6.801,3.082 -6.801,6.871 0,3.789 3.043,6.867 6.801,6.867 3.75,0 6.797,-3.078 6.797,-6.867 0,-3.789 -3.047,-6.871 -6.797,-6.871 m 0,648.481 c -3.758,0 -6.801,3.07 -6.801,6.86 0,3.8 3.043,6.87 6.801,6.87 3.75,0 6.797,-3.07 6.797,-6.87 0,-3.79 -3.047,-6.86 -6.797,-6.86 m 65.699,34.35 c 3.75,0 6.801,-3.07 6.801,-6.87 0,-3.79 -3.051,-6.86 -6.801,-6.86 -3.75,0 -6.801,3.07 -6.801,6.86 0,3.8 3.051,6.87 6.801,6.87 m -6.41,-34.94 c 6.98,0 12.64,-5.72 12.64,-12.77 0,-7.05 -5.66,-12.76 -12.64,-12.76 -6.981,0 -12.637,5.71 -12.637,12.76 0,7.05 5.656,12.77 12.637,12.77 m -7.051,-53.99 c 9.531,0 17.25,-7.8 17.25,-17.42 0,-9.61 -7.719,-17.41 -17.25,-17.41 -9.519,0 -17.238,7.8 -17.238,17.41 0,9.62 7.719,17.42 17.238,17.42 m -6.199,-68.67 c 10.719,0 19.402,-8.77 19.402,-19.59 0,-10.82 -8.683,-19.59 -19.402,-19.59 -10.711,0 -19.399,8.77 -19.399,19.59 0,10.82 8.688,19.59 19.399,19.59 m -4.012,-75.98 c 12.25,0 22.172,-10.02 22.172,-22.38 0,-12.364 -9.922,-22.383 -22.172,-22.383 -12.238,0 -22.156,10.019 -22.156,22.383 0,12.36 9.918,22.38 22.156,22.38 M 535.422,811.156 c 0,12.364 9.918,22.383 22.156,22.383 12.25,0 22.172,-10.019 22.172,-22.383 0,-12.355 -9.922,-22.39 -22.172,-22.39 -12.238,0 -22.156,10.035 -22.156,22.39 m 6.769,-78.769 c 0,10.812 8.688,19.59 19.399,19.59 10.719,0 19.402,-8.778 19.402,-19.59 0,-10.821 -8.683,-19.598 -19.402,-19.598 -10.711,0 -19.399,8.777 -19.399,19.598 m 8.36,-70.848 c 0,9.617 7.719,17.41 17.238,17.41 9.531,0 17.25,-7.793 17.25,-17.41 0,-9.621 -7.719,-17.414 -17.25,-17.414 -9.519,0 -17.238,7.793 -17.238,17.414 m 11.652,-58.644 c 0,7.05 5.656,12.765 12.637,12.765 6.98,0 12.64,-5.715 12.64,-12.765 0,-7.04 -5.66,-12.754 -12.64,-12.754 -6.981,0 -12.637,5.714 -12.637,12.754 m 19.047,-47.704 c -3.75,0 -6.801,3.079 -6.801,6.868 0,3.793 3.051,6.871 6.801,6.871 3.75,0 6.801,-3.078 6.801,-6.871 0,-3.789 -3.051,-6.868 -6.801,-6.868 M 560.688,873.07 c -18.446,0 -33.407,15.098 -33.407,33.731 0,18.64 14.961,33.742 33.407,33.742 18.453,0 33.414,-15.102 33.414,-33.742 0,-18.633 -14.961,-33.731 -33.414,-33.731 m 91.945,393.01 c 3.758,0 6.797,-3.07 6.797,-6.86 0,-3.8 -3.039,-6.87 -6.797,-6.87 -3.75,0 -6.805,3.07 -6.805,6.87 0,3.79 3.055,6.86 6.805,6.86 m 0.008,-37.15 c 6.976,0 12.636,-5.72 12.636,-12.77 0,-7.05 -5.66,-12.76 -12.636,-12.76 -6.981,0 -12.641,5.71 -12.641,12.76 0,7.05 5.66,12.77 12.641,12.77 m 0.019,-56.34 c 9.524,0 17.238,-7.8 17.238,-17.42 0,-9.62 -7.714,-17.41 -17.238,-17.41 -9.531,0 -17.25,7.79 -17.25,17.41 0,9.62 7.719,17.42 17.25,17.42 m 0.012,-67.25 c 11.601,0 20.996,-9.49 20.996,-21.21 0,-11.71 -9.395,-21.21 -20.996,-21.21 -11.602,0 -21.012,9.5 -21.012,21.21 0,11.72 9.41,21.21 21.012,21.21 m 0.008,-78.19 c 14.211,0 25.722,-11.63 25.722,-25.98 0,-14.338 -11.511,-25.971 -25.722,-25.971 -14.2,0 -25.723,11.633 -25.723,25.971 0,14.35 11.523,25.98 25.723,25.98 m -0.047,-479.4 c -3.75,0 -6.805,3.082 -6.805,6.871 0,3.789 3.055,6.867 6.805,6.867 3.758,0 6.797,-3.078 6.797,-6.867 0,-3.789 -3.039,-6.871 -6.797,-6.871 m 0.008,37.156 c -6.981,0 -12.641,5.715 -12.641,12.766 0,7.051 5.66,12.773 12.641,12.773 6.976,0 12.636,-5.722 12.636,-12.773 0,-7.051 -5.66,-12.766 -12.636,-12.766 m 0.019,56.34 c -9.531,0 -17.25,7.801 -17.25,17.422 0,9.609 7.719,17.41 17.25,17.41 9.524,0 17.238,-7.801 17.238,-17.41 0,-9.621 -7.714,-17.422 -17.238,-17.422 m 0.012,67.246 c -11.602,0 -21.012,9.5 -21.012,21.211 0,11.707 9.41,21.211 21.012,21.211 11.601,0 20.996,-9.504 20.996,-21.211 0,-11.711 -9.395,-21.211 -20.996,-21.211 m 0.008,78.203 c -14.2,0 -25.723,11.625 -25.723,25.965 0,14.352 11.523,25.969 25.723,25.969 14.211,0 25.722,-11.617 25.722,-25.969 0,-14.34 -11.511,-25.965 -25.722,-25.965 m -0.078,80.805 c -21.493,0 -38.922,17.598 -38.922,39.301 0,21.711 17.429,39.308 38.922,39.308 21.496,0 38.925,-17.597 38.925,-39.308 0,-21.703 -17.429,-39.301 -38.925,-39.301 m 301.125,129.418 c 6.328,0 11.445,-5.168 11.445,-11.547 0,-6.391 -5.117,-11.562 -11.445,-11.562 -6.321,0 -11.438,5.171 -11.438,11.562 0,6.379 5.117,11.547 11.438,11.547 m 18.242,-90.148 c 0,-8.629 -6.914,-15.633 -15.469,-15.633 -8.547,0 -15.469,7.004 -15.469,15.633 0,8.632 6.922,15.617 15.469,15.617 8.555,0 15.469,-6.985 15.469,-15.617 m -26.426,147.82 c 0,-4.89 -3.938,-8.86 -8.77,-8.86 -4.855,0 -8.769,3.97 -8.769,8.86 0,4.89 3.914,8.86 8.769,8.86 4.832,0 8.77,-3.97 8.77,-8.86 m -17.637,75.69 c 3.77,0 6.805,-3.07 6.805,-6.86 0,-3.8 -3.035,-6.87 -6.805,-6.87 -3.761,0 -6.797,3.07 -6.797,6.87 0,3.79 3.036,6.86 6.797,6.86 M 914.359,992.539 c 0,-10.219 -8.203,-18.512 -18.328,-18.512 -10.117,0 -18.332,8.293 -18.332,18.512 0,10.221 8.215,18.511 18.332,18.511 10.125,0 18.328,-8.29 18.328,-18.511 m -10.918,71.661 c 0,-7.92 -6.355,-14.34 -14.199,-14.34 -7.851,0 -14.199,6.42 -14.199,14.34 0,7.92 6.348,14.34 14.199,14.34 7.844,0 14.199,-6.42 14.199,-14.34 m -22.527,190.02 -1.738,-2.22 c -0.188,0.12 -0.363,0.26 -0.559,0.38 z m 8.328,-119.73 c 0,-6.11 -4.902,-11.07 -10.957,-11.07 -6.043,0 -10.957,4.96 -10.957,11.07 0,6.11 4.914,11.06 10.957,11.06 6.055,0 10.957,-4.95 10.957,-11.06 m -23.855,59.11 c 3.75,0 6.804,-3.07 6.804,-6.86 0,-3.8 -3.054,-6.87 -6.804,-6.87 -3.762,0 -6.797,3.07 -6.797,6.87 0,3.79 3.035,6.86 6.797,6.86 m -24.766,96.23 2.813,2.24 -3,-3.82 z m 4.715,-291.24 c 0,-10.992 -8.828,-19.906 -19.715,-19.906 -10.891,0 -19.719,8.914 -19.719,19.906 0,11 8.828,19.91 19.719,19.91 10.887,0 19.715,-8.91 19.715,-19.91 m -8.797,76.04 c 0,-9.85 -7.902,-17.83 -17.648,-17.83 -9.754,0 -17.664,7.98 -17.664,17.83 0,9.84 7.91,17.83 17.664,17.83 9.746,0 17.648,-7.99 17.648,-17.83 m -14.992,70.79 c 0,-7.32 -5.867,-13.25 -13.113,-13.25 -7.258,0 -13.125,5.93 -13.125,13.25 0,7.32 5.867,13.25 13.125,13.25 7.246,0 13.113,-5.93 13.113,-13.25 m -11.621,48.02 c 0,-5.53 -4.422,-10.01 -9.903,-10.01 -5.476,0 -9.902,4.48 -9.902,10.01 0,5.52 4.426,10 9.902,10 5.481,0 9.903,-4.48 9.903,-10 m -21.004,120.67 0.359,-3.06 -0.828,-1.06 z m 0.742,-76.09 c 3.758,0 6.797,-3.07 6.797,-6.87 0,-3.79 -3.039,-6.86 -6.797,-6.86 -3.75,0 -6.809,3.07 -6.809,6.86 0,3.8 3.059,6.87 6.809,6.87 m -19.875,-235.34 c 0,-12.364 -9.93,-22.383 -22.168,-22.383 -12.246,0 -22.168,10.019 -22.168,22.383 0,12.36 9.922,22.38 22.168,22.38 12.238,0 22.168,-10.02 22.168,-22.38 m -6.766,78.77 c 0,-10.82 -8.691,-19.59 -19.414,-19.59 -10.714,0 -19.394,8.77 -19.394,19.59 0,10.82 8.68,19.59 19.394,19.59 10.723,0 19.414,-8.77 19.414,-19.59 m -8.359,70.84 c 0,-9.61 -7.726,-17.41 -17.258,-17.41 -9.519,0 -17.234,7.8 -17.234,17.41 0,9.62 7.715,17.42 17.234,17.42 9.532,0 17.258,-7.8 17.258,-17.42 m -11.652,58.64 c 0,-7.05 -5.664,-12.76 -12.645,-12.76 -6.972,0 -12.637,5.71 -12.637,12.76 0,7.05 5.665,12.77 12.637,12.77 6.981,0 12.645,-5.72 12.645,-12.77 m -19.051,47.71 c 3.75,0 6.797,-3.07 6.797,-6.87 0,-3.79 -3.047,-6.86 -6.797,-6.86 -3.762,0 -6.797,3.07 -6.797,6.86 0,3.8 3.035,6.87 6.797,6.87 m 0,-703.449 c -3.762,0 -6.797,3.079 -6.797,6.868 0,3.793 3.035,6.871 6.797,6.871 3.75,0 6.797,-3.078 6.797,-6.871 0,-3.789 -3.047,-6.868 -6.797,-6.868 m 6.406,34.95 c -6.972,0 -12.637,5.714 -12.637,12.754 0,7.05 5.665,12.765 12.637,12.765 6.981,0 12.645,-5.715 12.645,-12.765 0,-7.04 -5.664,-12.754 -12.645,-12.754 m 7.039,53.984 c -9.519,0 -17.234,7.793 -17.234,17.414 0,9.617 7.715,17.41 17.234,17.41 9.532,0 17.258,-7.793 17.258,-17.41 0,-9.621 -7.726,-17.414 -17.258,-17.414 m 6.203,68.664 c -10.714,0 -19.394,8.777 -19.394,19.598 0,10.812 8.68,19.59 19.394,19.59 10.723,0 19.414,-8.778 19.414,-19.59 0,-10.821 -8.691,-19.598 -19.414,-19.598 m 4.012,75.977 c -12.246,0 -22.168,10.035 -22.168,22.39 0,12.364 9.922,22.383 22.168,22.383 12.238,0 22.168,-10.019 22.168,-22.383 0,-12.355 -9.93,-22.39 -22.168,-22.39 m -3.113,84.304 c -18.449,0 -33.41,15.098 -33.41,33.731 0,18.64 14.961,33.742 33.41,33.742 18.465,0 33.426,-15.102 33.426,-33.742 0,-18.633 -14.961,-33.731 -33.426,-33.731 m 45.156,-297.261 c -3.75,0 -6.809,3.082 -6.809,6.871 0,3.789 3.059,6.867 6.809,6.867 3.758,0 6.797,-3.078 6.797,-6.867 0,-3.789 -3.039,-6.871 -6.797,-6.871 m 10.359,34.578 c -5.476,0 -9.902,4.48 -9.902,10.008 0,5.527 4.426,10 9.902,10 5.481,0 9.903,-4.473 9.903,-10 0,-5.528 -4.422,-10.008 -9.903,-10.008 m 8.411,44.785 c -7.258,0 -13.125,5.926 -13.125,13.242 0,7.313 5.867,13.242 13.125,13.242 7.246,0 13.113,-5.929 13.113,-13.242 0,-7.316 -5.867,-13.242 -13.113,-13.242 m 10.457,66.211 c -9.754,0 -17.664,7.976 -17.664,17.832 0,9.832 7.91,17.812 17.664,17.812 9.746,0 17.648,-7.98 17.648,-17.812 0,-9.856 -7.902,-17.832 -17.648,-17.832 m 6.73,73.945 c -10.891,0 -19.719,8.922 -19.719,19.91 0,11.004 8.828,19.914 19.719,19.914 10.887,0 19.715,-8.91 19.715,-19.914 0,-10.988 -8.828,-19.91 -19.715,-19.91 m 0.711,85.473 c -14.219,0 -25.75,11.64 -25.75,26 0,14.367 11.531,26.008 25.75,26.008 14.231,0 25.754,-11.641 25.754,-26.008 0,-14.36 -11.523,-26 -25.754,-26 M 865.387,620.23 c -3.762,0 -6.797,3.075 -6.797,6.875 0,3.79 3.035,6.864 6.797,6.864 3.75,0 6.804,-3.074 6.804,-6.864 0,-3.8 -3.054,-6.875 -6.804,-6.875 m 12.898,48.055 c -6.043,0 -10.957,4.953 -10.957,11.067 0,6.113 4.914,11.054 10.957,11.054 6.055,0 10.957,-4.941 10.957,-11.054 0,-6.114 -4.902,-11.067 -10.957,-11.067 m 10.957,67.012 c -7.851,0 -14.199,6.426 -14.199,14.348 0,7.918 6.348,14.335 14.199,14.335 7.844,0 14.199,-6.417 14.199,-14.335 0,-7.922 -6.355,-14.348 -14.199,-14.348 m 6.789,67.492 c -10.117,0 -18.332,8.281 -18.332,18.5 0,10.231 8.215,18.512 18.332,18.512 10.125,0 18.328,-8.281 18.328,-18.512 0,-10.219 -8.203,-18.5 -18.328,-18.5 m 2.774,83.652 c -11.114,0 -20.129,9.102 -20.129,20.317 0,11.211 9.015,20.312 20.129,20.312 11.101,0 20.105,-9.101 20.105,-20.312 0,-11.215 -9.004,-20.317 -20.105,-20.317 m 29.101,-202.89 c -3.761,0 -6.797,3.074 -6.797,6.875 0,3.789 3.036,6.855 6.797,6.855 3.77,0 6.805,-3.066 6.805,-6.855 0,-3.801 -3.035,-6.875 -6.805,-6.875 m 8.867,66.836 c -4.855,0 -8.769,3.965 -8.769,8.855 0,4.895 3.914,8.86 8.769,8.86 4.832,0 8.77,-3.965 8.77,-8.86 0,-4.89 -3.938,-8.855 -8.77,-8.855 m 16.954,66.523 c -6.321,0 -11.438,5.18 -11.438,11.563 0,6.375 5.117,11.547 11.438,11.547 6.328,0 11.445,-5.172 11.445,-11.547 0,-6.383 -5.117,-11.563 -11.445,-11.563 m 20.097,-55.09 c -3.761,0 -6.808,3.067 -6.808,6.856 0,3.789 3.047,6.875 6.808,6.875 3.75,0 6.797,-3.086 6.797,-6.875 0,-3.789 -3.047,-6.856 -6.797,-6.856 m 0,276.47 c -3.761,0 -6.808,3.07 -6.808,6.86 0,3.79 3.047,6.87 6.808,6.87 3.75,0 6.797,-3.08 6.797,-6.87 0,-3.79 -3.047,-6.86 -6.797,-6.86 m 18.406,103.51 -2.761,-3.51 c -0.176,0.28 -0.364,0.58 -0.547,0.86 z m 2.188,-156.062 c 3.75,0 6.802,-3.066 6.802,-6.867 0,-3.793 -3.052,-6.859 -6.802,-6.859 -3.758,0 -6.797,3.066 -6.797,6.859 0,3.801 3.039,6.867 6.797,6.867 m 0,-157.636 c -3.758,0 -6.797,3.066 -6.797,6.859 0,3.789 3.039,6.871 6.797,6.871 3.75,0 6.802,-3.082 6.802,-6.871 0,-3.793 -3.052,-6.859 -6.802,-6.859 m 8.872,67.777 c -5.962,0 -10.794,4.883 -10.794,10.902 0,6.016 4.832,10.899 10.794,10.899 5.97,0 10.8,-4.883 10.8,-10.899 0,-6.019 -4.83,-10.902 -10.8,-10.902" /></g></g></svg>