<?xml version="1.0" encoding="UTF-8"?>
<svg xmlns="http://www.w3.org/2000/svg" xmlns:xlink="http://www.w3.org/1999/xlink" width="442.77pt" height="225.69pt" viewBox="0 0 442.77 225.69" version="1.1">
<defs>
<clipPath id="clip1">
  <path d="M 362 125 L 442.769531 125 L 442.769531 166 L 362 166 Z M 362 125 "/>
</clipPath>
<clipPath id="clip2">
  <path d="M 362 171 L 442.769531 171 L 442.769531 225.691406 L 362 225.691406 Z M 362 171 "/>
</clipPath>
</defs>
<g id="surface1">
<path style=" stroke:none;fill-rule:nonzero;fill:rgb(13.699341%,12.199402%,12.5%);fill-opacity:1;" d="M 164.546875 162.535156 C 164.546875 158.234375 163.109375 157.085938 160.242188 157.085938 C 159.8125 157.085938 158.449219 157.117188 158.199219 157.117188 L 158.199219 171.933594 C 158.449219 171.96875 159.769531 171.96875 160.242188 171.96875 C 163.109375 171.96875 164.546875 170.820313 164.546875 166.484375 Z M 160.242188 178.171875 C 156.835938 178.171875 153.886719 177.886719 152.027344 177.566406 C 151.234375 177.417969 150.882813 177.136719 150.882813 176.167969 L 150.882813 152.851563 C 150.882813 151.882813 151.234375 151.597656 152.027344 151.453125 C 153.886719 151.121094 156.800781 150.835938 160.242188 150.835938 C 167.339844 150.835938 171.894531 154.46875 171.894531 162.535156 L 171.894531 166.484375 C 171.894531 174.550781 167.378906 178.171875 160.242188 178.171875 "/>
<path style=" stroke:none;fill-rule:nonzero;fill:rgb(13.699341%,12.199402%,12.5%);fill-opacity:1;" d="M 189.824219 162.683594 C 189.824219 158.835938 188.714844 157.265625 186.203125 157.265625 C 183.695313 157.265625 182.578125 158.835938 182.578125 162.683594 L 182.578125 166.382813 C 182.578125 170.214844 183.695313 171.753906 186.203125 171.753906 C 188.714844 171.753906 189.824219 170.214844 189.824219 166.382813 Z M 186.203125 178.171875 C 180.246094 178.171875 175.195313 175.121094 175.195313 166.382813 L 175.195313 162.683594 C 175.195313 153.933594 180.246094 150.835938 186.203125 150.835938 C 192.15625 150.835938 197.214844 153.933594 197.214844 162.683594 L 197.214844 166.382813 C 197.214844 175.121094 192.15625 178.171875 186.203125 178.171875 "/>
<path style=" stroke:none;fill-rule:nonzero;fill:rgb(13.699341%,12.199402%,12.5%);fill-opacity:1;" d="M 230.972656 177.851563 L 225.121094 177.851563 C 224.730469 177.851563 224.445313 177.519531 224.445313 177.136719 L 224.445313 161.28125 C 224.445313 157.800781 223.585938 157.300781 220.136719 157.300781 L 220.136719 177.136719 C 220.136719 177.519531 219.820313 177.851563 219.421875 177.851563 L 213.535156 177.851563 C 213.140625 177.851563 212.816406 177.519531 212.816406 177.136719 L 212.816406 157.300781 C 209.371094 157.300781 208.519531 157.800781 208.519531 161.28125 L 208.519531 177.136719 C 208.519531 177.519531 208.230469 177.851563 207.835938 177.851563 L 201.980469 177.851563 C 201.597656 177.851563 201.238281 177.519531 201.238281 177.136719 L 201.238281 161.28125 C 201.238281 151.917969 205.972656 150.835938 216.484375 150.835938 C 226.953125 150.835938 231.726563 151.917969 231.726563 161.28125 L 231.726563 177.136719 C 231.726563 177.519531 231.363281 177.851563 230.972656 177.851563 "/>
<path style=" stroke:none;fill-rule:nonzero;fill:rgb(13.699341%,12.199402%,12.5%);fill-opacity:1;" d="M 252.425781 177.738281 C 251.0625 177.929688 248.835938 178.167969 245.359375 178.167969 C 240.761719 178.167969 236.171875 177.101563 236.171875 170.148438 L 236.171875 158.882813 C 236.171875 151.953125 240.761719 150.835938 245.359375 150.835938 C 248.835938 150.835938 251.0625 151.097656 252.425781 151.28125 C 252.886719 151.347656 253.144531 151.554688 253.144531 151.988281 L 253.144531 156.367188 C 253.144531 156.765625 252.820313 157.085938 252.425781 157.085938 L 245.171875 157.085938 C 243.882813 157.085938 243.460938 157.484375 243.460938 158.882813 L 243.460938 161.488281 L 252.277344 161.488281 C 252.671875 161.488281 252.996094 161.820313 252.996094 162.203125 L 252.996094 166.449219 C 252.996094 166.835938 252.671875 167.167969 252.277344 167.167969 L 243.460938 167.167969 L 243.460938 170.148438 C 243.460938 171.535156 243.882813 171.933594 245.171875 171.933594 L 252.425781 171.933594 C 252.820313 171.933594 253.144531 172.253906 253.144531 172.652344 L 253.144531 177.03125 C 253.144531 177.453125 252.886719 177.667969 252.425781 177.738281 "/>
<path style=" stroke:none;fill-rule:nonzero;fill:rgb(13.699341%,12.199402%,12.5%);fill-opacity:1;" d="M 265.261719 178.171875 C 262.316406 178.171875 259.914063 177.785156 258.015625 177.25 C 257.65625 177.136719 257.261719 176.917969 257.261719 176.53125 L 257.261719 172.117188 C 257.261719 171.648438 257.585938 171.398438 257.941406 171.398438 L 258.015625 171.398438 C 259.515625 171.535156 263.398438 171.933594 265.289063 171.933594 C 267.050781 171.933594 267.550781 171.25 267.550781 170.113281 C 267.550781 169.386719 267.195313 168.988281 265.867188 168.203125 L 260.703125 165.152344 C 257.324219 163.183594 256.433594 160.746094 256.433594 157.984375 C 256.433594 154.078125 258.582031 150.835938 265.832031 150.835938 C 268.652344 150.835938 272.5 151.316406 273.96875 151.734375 C 274.296875 151.851563 274.609375 152.03125 274.609375 152.417969 L 274.609375 156.902344 C 274.609375 157.265625 274.359375 157.585938 273.96875 157.585938 L 273.894531 157.585938 C 272.4375 157.484375 268.339844 157.117188 265.757813 157.117188 C 264.4375 157.117188 263.960938 157.585938 263.960938 158.347656 C 263.960938 158.996094 264.296875 159.347656 265.832031 160.167969 L 270.679688 162.761719 C 274.148438 164.617188 275.402344 166.984375 275.402344 169.953125 C 275.402344 173.984375 272.648438 178.171875 265.261719 178.171875 "/>
<path style=" stroke:none;fill-rule:nonzero;fill:rgb(13.699341%,12.199402%,12.5%);fill-opacity:1;" d="M 296.503906 157.152344 L 291.15625 157.152344 L 291.15625 177.136719 C 291.15625 177.53125 290.832031 177.851563 290.4375 177.851563 L 284.585938 177.851563 C 284.195313 177.851563 283.867188 177.53125 283.867188 177.136719 L 283.867188 157.152344 L 278.417969 157.152344 C 278.03125 157.152344 277.707031 156.867188 277.707031 156.480469 L 277.707031 151.882813 C 277.707031 151.484375 278.03125 151.199219 278.417969 151.199219 L 296.503906 151.199219 C 296.890625 151.199219 297.25 151.484375 297.25 151.882813 L 297.25 156.480469 C 297.25 156.867188 296.890625 157.152344 296.503906 157.152344 "/>
<path style=" stroke:none;fill-rule:nonzero;fill:rgb(13.699341%,12.199402%,12.5%);fill-opacity:1;" d="M 307.046875 177.851563 L 301.171875 177.851563 C 300.765625 177.851563 300.445313 177.519531 300.445313 177.136719 L 300.445313 151.882813 C 300.445313 151.484375 300.765625 151.199219 301.171875 151.199219 L 307.046875 151.199219 C 307.433594 151.199219 307.761719 151.484375 307.761719 151.882813 L 307.761719 177.136719 C 307.761719 177.519531 307.433594 177.851563 307.046875 177.851563 "/>
<path style=" stroke:none;fill-rule:nonzero;fill:rgb(13.699341%,12.199402%,12.5%);fill-opacity:1;" d="M 327.847656 177.523438 C 326.914063 177.851563 325.082031 178.167969 322.824219 178.167969 C 316.230469 178.167969 311.78125 174.585938 311.78125 166.378906 L 311.78125 162.683594 C 311.78125 154.46875 316.230469 150.871094 322.824219 150.871094 C 325.082031 150.871094 326.914063 151.203125 327.847656 151.519531 C 328.421875 151.703125 328.640625 151.816406 328.640625 152.316406 L 328.640625 156.902344 C 328.640625 157.371094 328.421875 157.585938 327.984375 157.585938 L 327.882813 157.585938 C 326.414063 157.449219 324.90625 157.265625 322.859375 157.265625 C 320.925781 157.265625 319.164063 158.121094 319.164063 162.683594 L 319.164063 166.378906 C 319.164063 170.898438 320.890625 171.785156 322.859375 171.785156 C 324.90625 171.785156 326.414063 171.617188 327.882813 171.46875 L 327.984375 171.46875 C 328.421875 171.46875 328.640625 171.683594 328.640625 172.152344 L 328.640625 176.738281 C 328.640625 177.214844 328.421875 177.351563 327.847656 177.523438 "/>
<path style=" stroke:none;fill-rule:nonzero;fill:rgb(13.699341%,12.199402%,12.5%);fill-opacity:1;" d="M 157.476563 220.898438 L 151.59375 220.898438 C 151.203125 220.898438 150.882813 220.570313 150.882813 220.171875 L 150.882813 194.929688 C 150.882813 194.535156 151.203125 194.25 151.59375 194.25 L 157.476563 194.25 C 157.871094 194.25 158.199219 194.535156 158.199219 194.929688 L 158.199219 220.171875 C 158.199219 220.570313 157.871094 220.898438 157.476563 220.898438 "/>
<path style=" stroke:none;fill-rule:nonzero;fill:rgb(13.699341%,12.199402%,12.5%);fill-opacity:1;" d="M 183.621094 220.898438 L 178.8125 220.898438 C 178.171875 220.898438 177.703125 220.613281 177.3125 219.933594 L 170.238281 207.90625 C 170.097656 207.652344 169.996094 207.621094 169.882813 207.621094 C 169.777344 207.621094 169.703125 207.699219 169.703125 207.949219 L 169.703125 220.171875 C 169.703125 220.570313 169.386719 220.898438 168.992188 220.898438 L 163.605469 220.898438 C 163.214844 220.898438 162.855469 220.570313 162.855469 220.171875 L 162.855469 195.582031 C 162.855469 194.863281 163.464844 194.25 164.179688 194.25 L 168.921875 194.25 C 169.597656 194.25 169.996094 194.636719 170.351563 195.285156 L 177.636719 207.652344 C 177.777344 207.90625 177.847656 207.984375 177.953125 207.984375 C 178.0625 207.984375 178.136719 207.949219 178.136719 207.652344 L 178.136719 194.957031 C 178.136719 194.566406 178.460938 194.25 178.855469 194.25 L 184.230469 194.25 C 184.628906 194.25 184.953125 194.566406 184.953125 194.957031 L 184.953125 219.566406 C 184.953125 220.285156 184.339844 220.898438 183.621094 220.898438 "/>
<path style=" stroke:none;fill-rule:nonzero;fill:rgb(13.699341%,12.199402%,12.5%);fill-opacity:1;" d="M 197.503906 221.21875 C 194.5625 221.21875 192.160156 220.820313 190.261719 220.285156 C 189.902344 220.171875 189.511719 219.953125 189.511719 219.566406 L 189.511719 215.152344 C 189.511719 214.6875 189.828125 214.4375 190.191406 214.4375 L 190.261719 214.4375 C 191.765625 214.585938 195.636719 214.980469 197.546875 214.980469 C 199.296875 214.980469 199.804688 214.300781 199.804688 213.148438 C 199.804688 212.421875 199.445313 212.035156 198.113281 211.25 L 192.945313 208.1875 C 189.578125 206.230469 188.679688 203.785156 188.679688 201.019531 C 188.679688 197.117188 190.835938 193.886719 198.078125 193.886719 C 200.917969 193.886719 204.746094 194.351563 206.226563 194.785156 C 206.546875 194.886719 206.871094 195.066406 206.871094 195.46875 L 206.871094 199.949219 C 206.871094 200.304688 206.617188 200.632813 206.226563 200.632813 L 206.148438 200.632813 C 204.679688 200.519531 200.589844 200.167969 198.011719 200.167969 C 196.683594 200.167969 196.214844 200.632813 196.214844 201.382813 C 196.214844 202.019531 196.542969 202.394531 198.078125 203.214844 L 202.921875 205.800781 C 206.402344 207.664063 207.652344 210.03125 207.652344 213.011719 C 207.652344 217.019531 204.894531 221.21875 197.503906 221.21875 "/>
<path style=" stroke:none;fill-rule:nonzero;fill:rgb(13.699341%,12.199402%,12.5%);fill-opacity:1;" d="M 228.742188 200.199219 L 223.398438 200.199219 L 223.398438 220.183594 C 223.398438 220.570313 223.078125 220.898438 222.679688 220.898438 L 216.839844 220.898438 C 216.4375 220.898438 216.113281 220.570313 216.113281 220.183594 L 216.113281 200.199219 L 210.664063 200.199219 C 210.273438 200.199219 209.949219 199.914063 209.949219 199.519531 L 209.949219 194.933594 C 209.949219 194.535156 210.273438 194.25 210.664063 194.25 L 228.742188 194.25 C 229.140625 194.25 229.496094 194.535156 229.496094 194.933594 L 229.496094 199.519531 C 229.496094 199.914063 229.140625 200.199219 228.742188 200.199219 "/>
<path style=" stroke:none;fill-rule:nonzero;fill:rgb(13.699341%,12.199402%,12.5%);fill-opacity:1;" d="M 245.597656 202.066406 C 245.597656 200.632813 245.167969 200.199219 243.699219 200.199219 L 240.9375 200.199219 C 239.492188 200.199219 239.03125 200.632813 239.03125 202.066406 L 239.03125 206.289063 L 245.597656 206.289063 Z M 252.117188 220.898438 L 246.277344 220.898438 C 245.890625 220.898438 245.597656 220.570313 245.597656 220.171875 L 245.597656 212.226563 L 239.03125 212.226563 L 239.03125 220.171875 C 239.03125 220.570313 238.742188 220.898438 238.351563 220.898438 L 232.46875 220.898438 C 232.070313 220.898438 231.75 220.570313 231.75 220.171875 L 231.75 202.066406 C 231.75 195.183594 236.269531 193.917969 240.9375 193.917969 L 243.699219 193.917969 C 248.363281 193.917969 252.871094 195.136719 252.871094 202.066406 L 252.871094 220.171875 C 252.871094 220.570313 252.519531 220.898438 252.117188 220.898438 "/>
<path style=" stroke:none;fill-rule:nonzero;fill:rgb(13.699341%,12.199402%,12.5%);fill-opacity:1;" d="M 272.277344 220.785156 C 270.996094 221.035156 268.558594 221.21875 266.652344 221.21875 C 262.054688 221.21875 257.425781 220.136719 257.425781 213.183594 L 257.425781 194.957031 C 257.425781 194.566406 257.796875 194.25 258.183594 194.25 L 264.027344 194.25 C 264.414063 194.25 264.75 194.566406 264.75 194.957031 L 264.75 213.183594 C 264.75 214.585938 265.175781 214.980469 266.472656 214.980469 L 272.277344 214.980469 C 272.675781 214.980469 273.007813 215.300781 273.007813 215.6875 L 273.007813 220.070313 C 273.007813 220.5 272.746094 220.71875 272.277344 220.785156 "/>
<path style=" stroke:none;fill-rule:nonzero;fill:rgb(13.699341%,12.199402%,12.5%);fill-opacity:1;" d="M 291.007813 220.785156 C 289.710938 221.035156 287.273438 221.21875 285.382813 221.21875 C 280.78125 221.21875 276.15625 220.136719 276.15625 213.183594 L 276.15625 194.957031 C 276.15625 194.566406 276.511719 194.25 276.902344 194.25 L 282.753906 194.25 C 283.144531 194.25 283.472656 194.566406 283.472656 194.957031 L 283.472656 213.183594 C 283.472656 214.585938 283.902344 214.980469 285.191406 214.980469 L 291.007813 214.980469 C 291.394531 214.980469 291.726563 215.300781 291.726563 215.6875 L 291.726563 220.070313 C 291.726563 220.5 291.46875 220.71875 291.007813 220.785156 "/>
<path style=" stroke:none;fill-rule:nonzero;fill:rgb(13.699341%,12.199402%,12.5%);fill-opacity:1;" d="M 310.441406 220.785156 C 309.070313 220.96875 306.847656 221.21875 303.371094 221.21875 C 298.785156 221.21875 294.1875 220.136719 294.1875 213.183594 L 294.1875 201.917969 C 294.1875 195 298.785156 193.886719 303.371094 193.886719 C 306.847656 193.886719 309.070313 194.136719 310.441406 194.316406 C 310.898438 194.386719 311.160156 194.613281 311.160156 195.035156 L 311.160156 199.414063 C 311.160156 199.800781 310.828125 200.132813 310.441406 200.132813 L 303.195313 200.132813 C 301.910156 200.132813 301.472656 200.519531 301.472656 201.917969 L 301.472656 204.535156 L 310.296875 204.535156 C 310.691406 204.535156 311.007813 204.855469 311.007813 205.253906 L 311.007813 209.484375 C 311.007813 209.882813 310.691406 210.203125 310.296875 210.203125 L 301.472656 210.203125 L 301.472656 213.183594 C 301.472656 214.585938 301.910156 214.980469 303.195313 214.980469 L 310.441406 214.980469 C 310.828125 214.980469 311.160156 215.300781 311.160156 215.6875 L 311.160156 220.070313 C 311.160156 220.5 310.898438 220.71875 310.441406 220.785156 "/>
<path style=" stroke:none;fill-rule:nonzero;fill:rgb(13.699341%,12.199402%,12.5%);fill-opacity:1;" d="M 329.019531 202.566406 C 329.019531 200.882813 327.824219 200.019531 325.425781 200.019531 C 325.175781 200.019531 322.882813 200.097656 322.664063 200.097656 L 322.664063 205.800781 C 322.839844 205.832031 325.066406 205.832031 325.289063 205.832031 C 328.054688 205.832031 329.019531 204.855469 329.019531 203.183594 Z M 336.570313 220.898438 L 329.980469 220.898438 C 329.585938 220.898438 329.445313 220.546875 329.261719 220.183594 L 324.785156 211.578125 L 324.53125 211.433594 C 324.171875 211.433594 323.027344 211.386719 322.664063 211.386719 L 322.664063 220.183594 C 322.664063 220.570313 322.347656 220.898438 321.949219 220.898438 L 316.132813 220.898438 C 315.742188 220.898438 315.386719 220.570313 315.386719 220.183594 L 315.386719 196.71875 C 315.386719 195 315.957031 194.613281 317.464844 194.351563 C 318.898438 194.136719 322.488281 193.886719 325.039063 193.886719 C 331.710938 193.886719 336.257813 196 336.257813 202.566406 L 336.257813 203.148438 C 336.257813 206.972656 334.140625 209.234375 331.882813 210.203125 L 337.089844 219.953125 C 337.152344 220.113281 337.183594 220.25 337.183594 220.363281 C 337.183594 220.683594 336.945313 220.898438 336.570313 220.898438 "/>
<g clip-path="url(#clip1)" clip-rule="nonzero">
<path style=" stroke:none;fill-rule:nonzero;fill:rgb(78.399658%,5.899048%,24.699402%);fill-opacity:1;" d="M 362.777344 154.84375 L 395.960938 127.875 C 399.730469 124.105469 405.824219 124.105469 409.589844 127.875 L 442.769531 154.84375 L 442.769531 165.074219 L 409.589844 137.601563 C 405.824219 133.835938 399.730469 133.835938 395.960938 137.601563 L 362.777344 165.074219 L 362.777344 154.84375 "/>
</g>
<path style=" stroke:none;fill-rule:nonzero;fill:rgb(78.399658%,5.899048%,24.699402%);fill-opacity:1;" d="M 397.808594 178.339844 L 397.808594 166.039063 C 397.808594 164.21875 399.289063 162.738281 401.121094 162.738281 L 404.421875 162.738281 C 406.246094 162.738281 407.71875 164.21875 407.71875 166.039063 L 407.71875 178.339844 C 407.71875 180.171875 406.246094 181.664063 404.421875 181.664063 L 401.121094 181.664063 C 399.289063 181.664063 397.808594 180.171875 397.808594 178.339844 "/>
<path style=" stroke:none;fill-rule:nonzero;fill:rgb(78.399658%,5.899048%,24.699402%);fill-opacity:1;" d="M 381.964844 191.859375 L 394.273438 191.859375 C 396.113281 191.859375 397.59375 193.339844 397.59375 195.160156 L 397.59375 198.472656 C 397.59375 200.304688 396.113281 201.78125 394.273438 201.78125 L 381.964844 201.78125 C 380.136719 201.78125 378.664063 200.304688 378.664063 198.472656 L 378.664063 195.160156 C 378.664063 193.339844 380.136719 191.859375 381.964844 191.859375 "/>
<path style=" stroke:none;fill-rule:nonzero;fill:rgb(78.399658%,5.899048%,24.699402%);fill-opacity:1;" d="M 411.285156 191.859375 L 423.582031 191.859375 C 425.410156 191.859375 426.886719 193.339844 426.886719 195.160156 L 426.886719 198.472656 C 426.886719 200.304688 425.410156 201.78125 423.582031 201.78125 L 411.285156 201.78125 C 409.449219 201.78125 407.964844 200.304688 407.964844 198.472656 L 407.964844 195.160156 C 407.964844 193.339844 409.449219 191.859375 411.285156 191.859375 "/>
<g clip-path="url(#clip2)" clip-rule="nonzero">
<path style=" stroke:none;fill-rule:nonzero;fill:rgb(25.498962%,25.099182%,25.898743%);fill-opacity:1;" d="M 436.691406 171.082031 L 436.691406 213.980469 C 436.691406 217.074219 434.171875 219.589844 431.0625 219.589844 L 374.492188 219.589844 C 371.386719 219.589844 368.871094 217.074219 368.871094 213.980469 L 368.871094 171.082031 L 362.777344 171.082031 L 362.777344 213.980469 C 362.777344 220.433594 368.035156 225.691406 374.492188 225.691406 L 431.0625 225.691406 C 437.515625 225.691406 442.769531 220.433594 442.769531 213.980469 L 442.769531 171.082031 L 436.691406 171.082031 "/>
</g>
<path style=" stroke:none;fill-rule:nonzero;fill:rgb(13.699341%,12.199402%,12.5%);fill-opacity:1;" d="M 350.339844 93.472656 L 350.339844 107.8125 C 350.339844 108.734375 349.589844 109.484375 348.695313 109.484375 L 348.3125 109.484375 C 347.394531 109.484375 346.636719 108.734375 346.636719 107.8125 L 346.636719 74.222656 C 346.636719 73.320313 347.394531 72.59375 348.3125 72.59375 L 348.695313 72.59375 C 349.589844 72.59375 350.339844 73.320313 350.339844 74.222656 L 350.339844 88.96875 L 382.742188 88.96875 L 382.742188 70.554688 C 382.742188 69.636719 382.007813 68.894531 381.085938 68.894531 L 315.371094 68.894531 C 314.449219 68.894531 313.714844 69.636719 313.714844 70.554688 L 313.714844 111.511719 C 313.714844 112.433594 314.449219 113.160156 315.371094 113.160156 L 381.085938 113.160156 C 382.007813 113.160156 382.742188 112.433594 382.742188 111.511719 L 382.742188 93.472656 L 350.339844 93.472656 "/>
<path style=" stroke:none;fill-rule:nonzero;fill:rgb(13.699341%,12.199402%,12.5%);fill-opacity:1;" d="M 269.746094 101.347656 L 230.140625 101.347656 C 229.230469 101.347656 228.476563 100.609375 228.476563 99.699219 L 228.476563 99.277344 C 228.476563 98.355469 229.230469 97.617188 230.140625 97.617188 L 269.746094 97.617188 L 269.746094 84.984375 L 230.140625 84.984375 C 229.230469 84.984375 228.476563 84.222656 228.476563 83.300781 L 228.476563 82.914063 C 228.476563 81.980469 229.230469 81.242188 230.140625 81.242188 L 269.746094 81.242188 L 269.746094 68.894531 L 204.734375 68.894531 C 203.808594 68.894531 203.070313 69.636719 203.070313 70.554688 L 203.070313 111.5 C 203.070313 112.433594 203.808594 113.160156 204.734375 113.160156 L 269.746094 113.160156 L 269.746094 101.347656 "/>
<path style=" stroke:none;fill-rule:nonzero;fill:rgb(13.699341%,12.199402%,12.5%);fill-opacity:1;" d="M 274.820313 113.136719 L 308.636719 113.136719 L 308.636719 68.894531 L 274.820313 68.894531 Z M 274.820313 113.136719 "/>
<path style=" stroke:none;fill-rule:nonzero;fill:rgb(78.399658%,5.899048%,24.699402%);fill-opacity:1;" d="M 111.277344 29.945313 L 111.277344 1.664063 C 111.277344 0.746094 110.539063 0.00390625 109.617188 0.00390625 L 73.144531 0.00390625 C 72.234375 0.00390625 71.480469 0.746094 71.480469 1.664063 L 71.480469 29.945313 L 111.277344 29.945313 "/>
<path style=" stroke:none;fill-rule:nonzero;fill:rgb(78.399658%,5.899048%,24.699402%);fill-opacity:1;" d="M 71.480469 33.609375 L 71.480469 175.871094 C 71.480469 176.804688 72.234375 177.535156 73.144531 177.535156 L 109.617188 177.535156 C 110.539063 177.535156 111.277344 176.804688 111.277344 175.871094 L 111.277344 33.609375 L 71.480469 33.609375 "/>
<path style=" stroke:none;fill-rule:nonzero;fill:rgb(78.399658%,5.899048%,24.699402%);fill-opacity:1;" d="M 153.9375 93.472656 L 153.9375 107.8125 C 153.9375 108.734375 153.203125 109.484375 152.289063 109.484375 L 151.914063 109.484375 C 150.992188 109.484375 150.253906 108.734375 150.253906 107.8125 L 150.253906 74.222656 C 150.253906 73.320313 150.992188 72.59375 151.914063 72.59375 L 152.289063 72.59375 C 153.203125 72.59375 153.9375 73.320313 153.9375 74.222656 L 153.9375 88.96875 L 186.363281 88.96875 L 186.363281 70.554688 C 186.363281 69.636719 185.617188 68.894531 184.691406 68.894531 L 118.988281 68.894531 C 118.054688 68.894531 117.328125 69.636719 117.328125 70.554688 L 117.328125 111.511719 C 117.328125 112.433594 118.054688 113.160156 118.988281 113.160156 L 184.691406 113.160156 C 185.617188 113.160156 186.363281 112.433594 186.363281 111.511719 L 186.363281 93.472656 L 153.9375 93.472656 "/>
<path style=" stroke:none;fill-rule:nonzero;fill:rgb(78.399658%,5.899048%,24.699402%);fill-opacity:1;" d="M 47.507813 68.894531 L 47.082031 82.1875 L 35.820313 68.894531 L 1.628906 68.894531 C 0.71875 68.894531 0 69.644531 0 70.535156 L 0 111.535156 C 0 112.441406 0.71875 113.183594 1.628906 113.183594 L 18.804688 113.183594 L 19.242188 99.699219 L 30.660156 113.183594 L 65.554688 113.183594 L 65.554688 68.894531 L 47.507813 68.894531 "/>
</g>
</svg>
