<svg xmlns="http://www.w3.org/2000/svg" width="212" height="44" viewBox="0 0 212 44" fill="none">
<path d="M27.7009 4.026L21.346 0.41304C20.8731 0.142511 20.3358 0 19.7887 0C19.2416 0 18.7043 0.142511 18.2314 0.41304L1.55676 9.88183C1.08344 10.1507 0.690411 10.5374 0.41715 11.0031C0.143888 11.4687 1.97188e-05 11.9969 0 12.5346L0 19.79L27.7009 4.026Z" fill="#00A7A7"/>
<path d="M1.55676 34.1253L3.95484 35.4885L39.5684 15.2614V12.535C39.5655 11.996 39.4188 11.4672 39.143 11.0015C38.8672 10.5358 38.4719 10.1495 37.9967 9.88128L35.6136 8.51904L0 28.7461V31.4726C0.0013544 32.0101 0.145776 32.5379 0.418897 33.0035C0.692017 33.469 1.08431 33.8561 1.55676 34.1263" fill="#00A7A7"/>
<path d="M11.8691 39.9801L18.2341 43.593C18.7082 43.8598 19.245 44.0002 19.7913 44.0002C20.3376 44.0002 20.8744 43.8598 21.3486 43.593L39.57 33.2377V24.2456L11.8691 39.9801Z" fill="#00A7A7"/>
<path d="M43.5269 4.026L37.171 0.41304C36.6981 0.142511 36.1608 0 35.6137 0C35.0667 0 34.5294 0.142511 34.0565 0.41304L15.833 10.7684V19.79L43.5269 4.026Z" fill="white"/>
<path d="M17.3898 34.1248L19.7879 35.488L55.4034 15.2609V12.5345C55.4021 11.997 55.2576 11.4692 54.9845 11.0036C54.7114 10.538 54.3191 10.1509 53.8467 9.88079L51.4486 8.51758L15.833 28.7457V31.4721C15.832 32.0101 15.9755 32.5388 16.2488 33.0047C16.5222 33.4707 16.9158 33.8564 17.3898 34.1248Z" fill="white"/>
<path d="M27.7002 39.9801L34.0551 43.593C34.5293 43.8598 35.0661 44.0002 35.6124 44.0002C36.1586 44.0002 36.6955 43.8598 37.1696 43.593L53.8443 34.1242C54.3168 33.8541 54.7091 33.467 54.9822 33.0014C55.2553 32.5359 55.3997 32.0081 55.4011 31.4705V24.2456L27.7002 39.9801Z" fill="white"/>
<path d="M196.522 8.15869V24.6038H200.129V8.15869H196.522Z" fill="white"/>
<path d="M204.659 15.8249L211.354 8.15869H206.704L200.125 16.0952L201.936 18.1592L207.286 24.6087H211.838L204.659 15.8249Z" fill="white"/>
<path d="M66.771 10.8655H71.8669V24.3916H72.5524L75.3761 22.7276V10.8655H80.4501V7.91699H66.771V10.8655Z" fill="white"/>
<path d="M95.6049 13.0558C95.6049 9.98535 93.6905 7.92529 88.8993 7.92529H82.6333V24.393H86.1425V18.83H89.0262L92.4235 24.3999H96.3274L92.3865 18.1558C93.4061 17.7455 94.2674 17.0282 94.847 16.1067C95.4266 15.1852 95.6948 14.1069 95.6129 13.0263L95.6049 13.0558ZM88.9073 15.8402H86.1435V10.864H88.6915C90.9716 10.864 91.8509 11.7063 91.8509 13.2681C91.8509 14.8298 90.7338 15.8697 88.8703 15.8697" fill="white"/>
<path d="M122.42 14.9096C119.887 14.0152 118.18 13.7007 118.18 12.3227C118.18 11.1865 119.142 10.5536 120.691 10.5536C122.142 10.5784 123.553 11.0191 124.752 11.8214L126.242 9.24145C124.582 8.13881 122.612 7.57515 120.609 7.62958C117.025 7.62958 114.529 9.38888 114.529 12.4514C114.529 15.17 116.407 16.3426 119.126 17.2301C121.51 18.0065 122.985 18.3879 122.985 19.6341C122.985 20.7261 122.016 21.4662 120.004 21.4662C118.389 21.4396 116.804 21.0378 115.377 20.2936L114.292 23.1527C116.091 24.1558 118.125 24.6812 120.193 24.6771C124.052 24.6771 126.735 22.7861 126.735 19.4297C126.735 16.9726 125.17 15.861 122.443 14.9086" fill="white"/>
<path d="M127.985 10.8655H133.074V24.3916H133.767L136.583 22.7355V10.8655H141.657V7.91699H127.985V10.8655Z" fill="white"/>
<path d="M152.84 19.8125L147.214 7.91114H143.862V24.3926H147.222V14.3675L151.73 23.9169H153.711L158.293 14.2849V24.3926H161.658V7.91016H158.275L152.84 19.8125Z" fill="white"/>
<path d="M169.463 7.91016L163.182 24.3926H166.859L171.203 11.8455L175.652 24.3926H179.449L172.994 7.91016H169.463Z" fill="white"/>
<path d="M193.909 13.0558C193.909 9.98535 191.994 7.92529 187.203 7.92529H180.945V24.393H184.455V18.83H187.33L190.727 24.3999H194.639L190.669 18.1637C191.69 17.7544 192.553 17.0374 193.134 16.1157C193.714 15.1939 193.983 14.1147 193.902 13.0332L193.909 13.0558ZM187.196 15.8471H184.44V10.864H187.009C189.29 10.864 190.176 11.7063 190.176 13.2681C190.176 14.8298 189.059 15.8697 187.195 15.8697" fill="white"/>
<path d="M108.392 9.581V18.3284C108.463 19.0327 108.463 19.7421 108.392 20.4464C108.273 21.0361 107.693 21.2966 107.155 21.4362C106.404 21.6214 105.63 21.6979 104.857 21.6632C104.189 21.6358 103.527 21.535 102.882 21.3624C102.632 21.3168 102.402 21.1957 102.224 21.0157C102.046 20.8357 101.93 20.6059 101.891 20.358C101.835 19.6826 101.835 19.0038 101.891 18.3284V7.91016H101.206L98.35 9.581V19.841C98.3059 20.781 98.567 21.7103 99.0954 22.4947C99.1683 22.6046 99.2481 22.71 99.3342 22.8102C100.384 24.0122 102.553 24.7592 104.989 24.7523H105.189C107.625 24.7523 109.793 24.0191 110.844 22.8033C110.93 22.7031 111.01 22.5977 111.083 22.4878C111.628 21.7061 111.908 20.7748 111.882 19.8272V7.91016H111.309L108.392 9.581Z" fill="white"/>
<path d="M71.2059 31.0466C71.2687 30.7022 71.3765 30.3672 71.5267 30.05C71.6729 29.7356 71.8692 29.4463 72.1082 29.1929C72.3655 28.9307 72.675 28.7236 73.0175 28.5845C73.4189 28.4324 73.8463 28.3576 74.2765 28.3644C74.8022 28.3536 75.321 28.4844 75.7766 28.7427C76.2322 29.001 76.6074 29.3769 76.8614 29.8298L75.8482 30.563C75.6628 30.2637 75.4072 30.0123 75.1028 29.8298C74.8321 29.6979 74.5336 29.6305 74.2315 29.6332C73.949 29.6253 73.6701 29.6965 73.4272 29.8387C73.197 29.9768 73.007 30.1712 72.8756 30.4028C72.7282 30.6462 72.6225 30.9119 72.5629 31.1891C72.4941 31.4924 72.4606 31.8023 72.4629 32.113C72.4246 32.7597 72.5773 33.4034 72.9026 33.9666C73.0432 34.1828 73.239 34.3588 73.4705 34.4771C73.7019 34.5954 73.9609 34.6519 74.2215 34.6409C74.51 34.637 74.7916 34.5532 75.0339 34.3991C75.3063 34.2324 75.5438 34.0159 75.7333 33.7612V32.9838H74.2455V31.8889H76.9943V35.6925H75.9292L75.8772 34.9593C75.6495 35.2087 75.3727 35.41 75.0635 35.5511C74.7543 35.6922 74.4193 35.7701 74.0786 35.78C73.6764 35.7886 73.2763 35.7188 72.9016 35.5746C72.582 35.4528 72.2925 35.2655 72.0523 35.0252C71.8336 34.7885 71.6551 34.5187 71.5237 34.2261C71.3803 33.9001 71.2777 33.5582 71.2179 33.2079C71.1567 32.8322 71.1269 32.4522 71.129 32.0717C71.1287 31.725 71.1621 31.3791 71.2289 31.0387" fill="white"/>
<path d="M78.2301 32.3722C78.2565 32.2483 78.2899 32.1259 78.33 32.0056C78.376 31.8835 78.4284 31.7637 78.4869 31.6469C78.6008 31.4085 78.7545 31.1906 78.9415 31.0021C79.1379 30.8033 79.3735 30.6461 79.634 30.5402C79.93 30.4133 80.2504 30.3509 80.5732 30.3574C80.9025 30.3513 81.2295 30.4112 81.5345 30.5333C81.7914 30.6419 82.0242 30.7988 82.2199 30.9953C82.3983 31.1875 82.5464 31.4048 82.6596 31.64C82.774 31.8727 82.8566 32.1192 82.9054 32.3732C82.9821 32.7321 82.9996 33.1008 82.9573 33.4652C82.9661 33.5951 82.9457 33.7253 82.8974 33.8465C82.8367 34.1001 82.7469 34.3461 82.6296 34.5797C82.5053 34.8092 82.35 35.0211 82.168 35.2097C81.9751 35.3991 81.744 35.5464 81.4895 35.6422C81.2002 35.7545 80.8912 35.8093 80.5802 35.8034C80.2672 35.8072 79.9563 35.7525 79.664 35.6422C79.4006 35.5416 79.1639 35.3837 78.9715 35.1803C78.7878 34.9931 78.6323 34.7809 78.5099 34.5502C78.391 34.3173 78.3011 34.0711 78.2421 33.817C78.1909 33.5758 78.1634 33.3303 78.1602 33.0838C78.1615 32.8376 78.1866 32.5921 78.2351 32.3506L78.2301 32.3722ZM79.7249 34.2269C79.8109 34.3748 79.9342 34.4985 80.083 34.5858C80.2318 34.6731 80.401 34.7211 80.5742 34.7252C80.7484 34.7246 80.9194 34.6789 81.0699 34.5926C81.2204 34.5063 81.3451 34.3826 81.4315 34.2338C81.6547 33.8805 81.7663 33.47 81.7523 33.0543C81.7686 32.6387 81.6646 32.227 81.4525 31.8671C81.362 31.7215 81.2333 31.6026 81.08 31.5227C80.9268 31.4429 80.7545 31.405 80.5812 31.413C80.3393 31.4082 80.1048 31.4947 79.9258 31.6548C79.7358 31.8174 79.5942 32.0277 79.5161 32.2631C79.4318 32.5187 79.3889 32.7857 79.3892 33.0543C79.3786 33.4695 79.4956 33.8782 79.7249 34.2269Z" fill="white"/>
<path d="M85.5479 32.5264C85.7118 33.0178 85.8087 33.3028 85.8307 33.3834L86.0165 34.0714L86.1504 33.6026L86.2174 33.3972L87.1856 30.4653H88.5415L86.5431 35.698H85.478L83.4766 30.4673H84.8355C85.1352 31.3686 85.3641 32.0654 85.5279 32.549" fill="white"/>
<path d="M89.295 31.7354C89.4702 31.3226 89.7693 30.9722 90.1523 30.7309C90.5551 30.4738 91.0281 30.3435 91.5082 30.3575C91.8045 30.3521 92.0987 30.407 92.3725 30.5187C92.6132 30.6086 92.8299 30.7515 93.006 30.9364C93.177 31.1162 93.318 31.3215 93.4237 31.5447C93.5329 31.7781 93.6105 32.0247 93.6545 32.278C93.6465 32.4024 93.6642 32.5271 93.7064 32.6446C93.7584 32.7694 93.7064 32.8942 93.7064 33.0259V33.4289H90.2792C90.2731 33.7832 90.3827 34.1301 90.5919 34.4186C90.6929 34.5431 90.8227 34.6419 90.9704 34.7069C91.1182 34.7719 91.2796 34.8011 91.4412 34.7921C91.6998 34.7944 91.9552 34.7364 92.1867 34.623C92.4412 34.4738 92.6517 34.2617 92.7972 34.0078L93.6914 34.5975C93.4759 34.9951 93.1539 35.3272 92.7602 35.5577C92.3331 35.7589 91.8625 35.8544 91.3893 35.8359C91.0885 35.8369 90.7902 35.7822 90.51 35.6747C90.2646 35.5812 90.0415 35.439 89.8545 35.257C89.6759 35.0815 89.5274 34.8787 89.4149 34.6565C89.2907 34.4258 89.2005 34.1789 89.1471 33.9233C89.0989 33.6817 89.0738 33.4362 89.0721 33.19C89.0614 32.6889 89.1524 32.1907 89.3399 31.7246L89.295 31.7354ZM92.2006 31.7246C92.1094 31.6193 91.9946 31.536 91.8654 31.4813C91.7361 31.4266 91.5958 31.4019 91.4552 31.4091C91.3137 31.4053 91.1732 31.4331 91.0441 31.4903C90.915 31.5475 90.8007 31.6326 90.7098 31.7394C90.5058 31.9714 90.374 32.2563 90.3301 32.56H92.5194C92.5034 32.2555 92.3913 31.9635 92.1986 31.7246" fill="white"/>
<path d="M95.9551 30.441L96.044 31.1369C96.1329 31.0199 96.2079 30.9246 96.2748 30.8509C96.3498 30.7682 96.432 30.6922 96.5206 30.6239C96.6154 30.5424 96.724 30.4779 96.8414 30.4332C96.9662 30.3878 97.0965 30.3584 97.2291 30.3457H97.304C97.4152 30.3475 97.5255 30.3647 97.6317 30.3968C97.7723 30.4377 97.9068 30.4969 98.0314 30.5727L97.6957 31.6352C97.5243 31.5644 97.3437 31.5174 97.1591 31.4956C97.0522 31.4929 96.9458 31.5109 96.846 31.5487C96.7462 31.5865 96.655 31.6433 96.5776 31.7158C96.3895 31.8987 96.2424 32.1183 96.1459 32.3605V35.6728H94.9419V30.441H95.9551Z" fill="white"/>
<path d="M100.21 30.4361L100.255 31.1693C100.44 30.9342 100.667 30.7343 100.925 30.5796C101.155 30.455 101.409 30.3799 101.671 30.3594H101.843C102.027 30.3547 102.211 30.3819 102.386 30.44C102.578 30.5005 102.754 30.6034 102.9 30.7408C103.038 30.8863 103.149 31.0551 103.227 31.2391C103.316 31.433 103.379 31.6375 103.413 31.8475V35.6727H102.176V32.5187C102.176 31.8301 101.901 31.4858 101.349 31.4858C101.111 31.4875 100.883 31.5823 100.715 31.7492C100.512 31.9378 100.346 32.1613 100.224 32.4087V35.6698H99.0928V30.4361H100.21Z" fill="white"/>
<path d="M106.037 30.4412L106.137 31.1745C106.33 30.9519 106.55 30.7538 106.793 30.5847C107.003 30.4541 107.243 30.3761 107.492 30.3577H107.947C108.104 30.3826 108.257 30.4296 108.401 30.4973C108.568 30.5691 108.717 30.6738 108.841 30.8049C108.976 30.9575 109.084 31.1308 109.162 31.3179L109.304 31.142L109.437 30.9956C109.536 30.8919 109.641 30.7935 109.75 30.7007C109.874 30.6006 110.012 30.5191 110.16 30.4589C110.306 30.3936 110.462 30.354 110.621 30.342H110.837C111.073 30.3388 111.308 30.3784 111.53 30.4589C111.772 30.5423 111.982 30.6988 112.129 30.9061C112.275 31.1151 112.381 31.3481 112.442 31.5941C112.512 31.8795 112.546 32.1724 112.542 32.4659V35.6543H111.298V32.4905C111.305 32.2322 111.236 31.9775 111.098 31.7573C111.033 31.6736 110.948 31.6069 110.851 31.5634C110.753 31.5198 110.646 31.5007 110.54 31.5076H110.468C110.23 31.5236 110.005 31.6221 109.834 31.7858C109.646 31.957 109.498 32.1671 109.402 32.4011V35.7064H108.158V32.4826C108.165 32.2252 108.098 31.9712 107.965 31.7494C107.903 31.6667 107.822 31.5996 107.729 31.5538C107.635 31.508 107.532 31.4848 107.428 31.486H107.346C107.089 31.5268 106.849 31.6377 106.653 31.8061C106.456 31.9744 106.312 32.1935 106.236 32.4384V35.6926H105.002V30.4678L106.037 30.4412Z" fill="white"/>
<path d="M113.995 31.7354C114.164 31.3257 114.455 30.9756 114.829 30.7309C115.232 30.4738 115.705 30.3435 116.185 30.3575C116.481 30.3521 116.775 30.407 117.049 30.5187C117.29 30.6086 117.507 30.7515 117.683 30.9364C117.854 31.1162 117.995 31.3215 118.1 31.5447C118.21 31.7782 118.287 32.0247 118.331 32.278C118.323 32.4024 118.341 32.5271 118.383 32.6446C118.435 32.7694 118.383 32.8942 118.383 33.0259V33.2313C118.379 33.2968 118.379 33.3624 118.383 33.4279H114.956C114.95 33.7822 115.059 34.1291 115.269 34.4176C115.369 34.5415 115.497 34.6401 115.644 34.7051C115.79 34.7701 115.95 34.7996 116.111 34.7911C116.37 34.7952 116.625 34.7376 116.856 34.623C117.115 34.4766 117.329 34.264 117.475 34.0078L118.369 34.5975C118.154 34.9951 117.832 35.3272 117.438 35.5577C117.011 35.7589 116.54 35.8544 116.067 35.8359C115.766 35.8369 115.468 35.7822 115.188 35.6747C114.942 35.5812 114.719 35.439 114.532 35.257C114.354 35.0815 114.205 34.8787 114.093 34.6565C113.968 34.4258 113.878 34.1789 113.825 33.9233C113.773 33.6822 113.748 33.4364 113.75 33.19C113.739 32.6889 113.83 32.1907 114.018 31.7246L113.995 31.7354ZM116.878 31.7246C116.783 31.6239 116.667 31.5439 116.538 31.4897C116.409 31.4354 116.27 31.4081 116.13 31.4095C115.99 31.4109 115.852 31.4409 115.724 31.4977C115.596 31.5545 115.482 31.6368 115.389 31.7394C115.185 31.9714 115.053 32.2563 115.009 32.56H117.199C117.183 32.2555 117.071 31.9635 116.878 31.7246Z" fill="white"/>
<path d="M120.803 30.4361L120.84 31.1693C121.025 30.9342 121.253 30.7343 121.511 30.5796C121.741 30.4558 121.995 30.3808 122.256 30.3594H122.427C122.614 30.3547 122.801 30.3819 122.979 30.44C123.169 30.5051 123.343 30.6074 123.492 30.7408C123.631 30.8863 123.742 31.0551 123.82 31.2391C123.903 31.4345 123.963 31.6386 123.999 31.8475C123.993 31.9562 124.006 32.0651 124.036 32.1698C124.043 32.287 124.043 32.4045 124.036 32.5217V35.6727H122.807V32.5187C122.807 31.8301 122.531 31.4858 121.979 31.4858C121.739 31.4875 121.509 31.5821 121.339 31.7492C121.14 31.9417 120.974 32.1644 120.847 32.4087V35.6698H119.611V30.4361H120.803Z" fill="white"/>
<path d="M125.767 30.4382V29.3168L126.966 28.8774V30.45H128.091V31.4329H126.966V34.3057C126.952 34.4288 126.988 34.5522 127.066 34.6497C127.11 34.6953 127.165 34.7302 127.226 34.7518C127.286 34.7734 127.351 34.7812 127.415 34.7746H127.557L127.893 34.7303L128.042 35.61C127.785 35.7053 127.516 35.7623 127.242 35.779C127.026 35.7813 126.811 35.7542 126.602 35.6984C126.445 35.6564 126.298 35.5843 126.17 35.4861C126.062 35.3999 125.973 35.2924 125.909 35.1706C125.844 35.0538 125.796 34.9279 125.768 34.7972C125.763 34.7317 125.763 34.666 125.768 34.6006C125.764 34.5273 125.764 34.4538 125.768 34.3804V31.4496H124.947V30.4382H125.767Z" fill="white"/>
<path d="M136.667 28.4746L136.592 29.6403H133.18V31.4507H136.204L136.122 32.579H133.18V34.4848H136.704L136.637 35.672H131.891V28.4746H136.667Z" fill="white"/>
<path d="M139.146 30.4361L139.191 31.1693C139.376 30.9342 139.603 30.7343 139.862 30.5796C140.091 30.455 140.345 30.3799 140.607 30.3594H140.816C141 30.3547 141.184 30.3819 141.359 30.44C141.551 30.5022 141.727 30.6048 141.874 30.7408C142.013 30.8863 142.124 31.0551 142.202 31.2391C142.29 31.433 142.353 31.6375 142.388 31.8475C142.382 31.9562 142.394 32.0651 142.424 32.1698C142.443 32.2864 142.443 32.4051 142.424 32.5217V35.6727H141.187V32.5187C141.187 31.8301 140.912 31.4858 140.36 31.4858C140.122 31.4875 139.894 31.5823 139.727 31.7492C139.523 31.9378 139.357 32.1613 139.235 32.4087V35.6698H137.999V30.4361H139.146Z" fill="white"/>
<path d="M143.683 32.4328C143.732 32.1807 143.809 31.9348 143.914 31.6996C144.02 31.457 144.163 31.2319 144.338 31.0322C144.516 30.8297 144.738 30.6695 144.987 30.5634C145.275 30.4376 145.588 30.3752 145.903 30.3806C146.177 30.3921 146.445 30.4592 146.692 30.5776C146.938 30.696 147.157 30.8631 147.334 31.0686V28.5849L148.548 28.1377V35.6713H147.468L147.423 34.938C147.21 35.188 146.959 35.4033 146.678 35.5759C146.414 35.7214 146.116 35.7947 145.813 35.7882C145.527 35.7921 145.244 35.7397 144.979 35.6339C144.746 35.5418 144.537 35.399 144.368 35.2162C144.201 35.0382 144.063 34.8356 143.959 34.6157C143.848 34.3822 143.768 34.1358 143.72 33.8825C143.672 33.6408 143.647 33.3954 143.645 33.1493C143.645 32.8891 143.668 32.6294 143.712 32.3728L143.683 32.4328ZM145.023 33.8382C145.097 34.0613 145.225 34.2636 145.396 34.4279C145.569 34.5877 145.799 34.6745 146.036 34.6697C146.306 34.6651 146.567 34.5751 146.782 34.4132C147.018 34.247 147.201 34.0183 147.31 33.7537V32.2853C147.196 32.0517 147.021 31.852 146.804 31.7064C146.582 31.5646 146.322 31.4907 146.058 31.4941C145.863 31.4891 145.671 31.5345 145.5 31.6258C145.348 31.7179 145.222 31.8464 145.135 31.9993C145.05 32.1614 144.987 32.3339 144.949 32.5124C144.91 32.7128 144.889 32.9166 144.889 33.1208C144.888 33.3693 144.926 33.6166 145.001 33.854" fill="white"/>
<path d="M149.905 32.3722C149.931 32.2483 149.964 32.1259 150.005 32.0056C150.051 31.8835 150.103 31.7637 150.162 31.6469C150.278 31.41 150.431 31.1925 150.616 31.0021C150.814 30.8017 151.052 30.6443 151.316 30.5402C151.612 30.4133 151.932 30.3509 152.255 30.3574C152.581 30.3514 152.906 30.4113 153.208 30.5333C153.466 30.64 153.699 30.7972 153.894 30.9953C154.074 31.1856 154.223 31.4033 154.333 31.64C154.446 31.874 154.531 32.12 154.587 32.3732C154.633 32.615 154.655 32.8605 154.654 33.1064C154.662 33.2374 154.662 33.3686 154.654 33.4996C154.644 33.6281 154.624 33.7556 154.594 33.8809C154.54 34.1364 154.45 34.3832 154.326 34.6141C154.204 34.8434 154.051 35.0553 153.872 35.2441C153.676 35.4336 153.443 35.5809 153.186 35.6766C152.9 35.7885 152.594 35.8433 152.287 35.8378C151.971 35.8417 151.658 35.787 151.363 35.6766C151.104 35.5775 150.87 35.425 150.677 35.2294C150.496 35.0419 150.343 34.8298 150.222 34.5994C150.097 34.3692 150.007 34.1222 149.955 33.8662C149.903 33.6249 149.876 33.3794 149.873 33.133C149.87 32.8866 149.895 32.6407 149.948 32.3998L149.905 32.3722ZM151.438 34.276C151.522 34.4257 151.646 34.5504 151.796 34.6372C151.946 34.7241 152.117 34.7698 152.291 34.7698C152.465 34.7698 152.636 34.7241 152.786 34.6372C152.936 34.5504 153.06 34.4257 153.144 34.276C153.35 33.9153 153.46 33.5092 153.464 33.0954C153.468 32.6817 153.365 32.2737 153.166 31.9093C153.075 31.7626 152.945 31.6429 152.79 31.5629C152.635 31.483 152.461 31.4458 152.287 31.4552C152.045 31.4511 151.811 31.5376 151.631 31.697C151.447 31.8623 151.309 32.0719 151.232 32.3054C151.147 32.5609 151.105 32.828 151.105 33.0966C151.094 33.5118 151.211 33.9204 151.441 34.2691" fill="white"/>
<path d="M156.925 30.441L157.014 31.1369L157.245 30.8509C157.32 30.7682 157.402 30.6922 157.491 30.6239C157.585 30.5424 157.694 30.4779 157.811 30.4332C157.936 30.3878 158.067 30.3584 158.199 30.3457H158.274C158.385 30.3475 158.496 30.3647 158.602 30.3968C158.742 30.4377 158.877 30.4969 159.001 30.5727L158.696 31.6352C158.524 31.5644 158.344 31.5174 158.159 31.4956C158.052 31.4929 157.946 31.5109 157.846 31.5487C157.746 31.5865 157.655 31.6433 157.578 31.7158C157.389 31.8987 157.242 32.1183 157.146 32.3605V35.6728H155.942V30.441H156.925Z" fill="white"/>
<path d="M161.617 34.7557C161.821 34.7565 162.021 34.698 162.191 34.5877C162.274 34.5415 162.342 34.4742 162.389 34.3929C162.436 34.3116 162.46 34.2193 162.459 34.1257C162.456 34.0735 162.442 34.0224 162.416 33.9767C162.39 33.931 162.354 33.8918 162.31 33.8623C162.195 33.7785 162.066 33.714 161.93 33.6716L161.412 33.5095C161.22 33.4585 161.031 33.3975 160.846 33.3267C160.662 33.2597 160.487 33.1713 160.324 33.0633C160.167 32.9606 160.037 32.8224 159.945 32.6603C159.844 32.4757 159.793 32.2691 159.796 32.0598C159.787 31.829 159.83 31.5992 159.921 31.3864C160.013 31.1737 160.15 30.9832 160.324 30.8282C160.683 30.5115 161.153 30.3436 161.635 30.3594C162.031 30.3504 162.421 30.4472 162.765 30.6395C163.109 30.8318 163.393 31.1125 163.588 31.4514L162.688 32.0598C162.581 31.8661 162.422 31.705 162.228 31.594C162.034 31.4829 161.813 31.4261 161.589 31.4297C161.434 31.4244 161.282 31.4767 161.165 31.5762C161.105 31.6229 161.058 31.683 161.026 31.7514C160.995 31.8198 160.981 31.8945 160.986 31.9693C160.987 32.0217 161.002 32.0729 161.028 32.1187C161.054 32.1645 161.09 32.2036 161.135 32.2327C161.249 32.3166 161.378 32.381 161.514 32.4234L161.76 32.4971L162.036 32.5708C162.132 32.5933 162.227 32.6225 162.319 32.6583L162.601 32.7566L162.877 32.8814C162.964 32.9191 163.046 32.9659 163.123 33.021C163.283 33.1273 163.413 33.2708 163.503 33.4387C163.604 33.6283 163.655 33.8398 163.652 34.054C163.66 34.2918 163.614 34.5285 163.517 34.7466C163.421 34.9648 163.276 35.159 163.093 35.315C162.718 35.642 162.23 35.8175 161.729 35.8064C161.276 35.8227 160.825 35.7342 160.413 35.5479C160.034 35.326 159.727 35.0033 159.527 34.6171L160.413 34.0146C160.527 34.2319 160.699 34.4147 160.91 34.5438C161.121 34.6729 161.364 34.7434 161.612 34.7479" fill="white"/>
<path d="M164.888 31.7354C165.057 31.3257 165.348 30.9756 165.722 30.7309C166.125 30.4738 166.598 30.3435 167.078 30.3575C167.374 30.3521 167.669 30.407 167.942 30.5187C168.183 30.6086 168.4 30.7515 168.576 30.9364C168.749 31.1147 168.89 31.3204 168.993 31.5447C169.148 31.8871 169.244 32.2525 169.276 32.6259C169.284 32.7529 169.284 32.8802 169.276 33.0072V33.4102H165.849C165.842 33.7659 165.955 34.1139 166.17 34.3999C166.269 34.5248 166.397 34.624 166.544 34.6891C166.691 34.7542 166.851 34.7831 167.012 34.7734C167.271 34.7757 167.526 34.7178 167.757 34.6044C168.012 34.4552 168.223 34.2431 168.368 33.9891L169.262 34.5788C169.047 34.9765 168.725 35.3085 168.331 35.5391C167.904 35.7403 167.433 35.8358 166.96 35.8172C166.659 35.8182 166.361 35.7635 166.081 35.656C165.835 35.5626 165.612 35.4204 165.425 35.2383C165.247 35.0629 165.098 34.86 164.986 34.6378C164.86 34.4084 164.772 34.161 164.725 33.9046C164.671 33.6638 164.643 33.418 164.643 33.1714C164.632 32.6702 164.723 32.172 164.911 31.7059L164.888 31.7354ZM167.771 31.7059C167.68 31.6006 167.565 31.5173 167.436 31.4626C167.307 31.4079 167.167 31.3832 167.026 31.3904C166.885 31.3866 166.744 31.4143 166.615 31.4715C166.486 31.5287 166.371 31.6139 166.281 31.7207C166.077 31.9527 165.945 32.2376 165.901 32.5414H168.091C168.075 32.2368 167.963 31.9448 167.77 31.7059" fill="white"/>
<path d="M170.396 32.4323C170.441 32.1794 170.519 31.9331 170.626 31.6991C170.733 31.4582 170.873 31.2335 171.044 31.0317C171.224 30.8291 171.448 30.6689 171.7 30.5629C171.987 30.4357 172.3 30.3733 172.616 30.3801C172.89 30.3916 173.158 30.4587 173.404 30.5771C173.651 30.6955 173.869 30.8626 174.047 31.0681V28.5844L175.261 28.1372V35.6708H174.181L174.129 34.9376C173.915 35.1862 173.663 35.4013 173.383 35.5754C173.119 35.7199 172.821 35.7931 172.519 35.7877C172.233 35.7925 171.949 35.74 171.685 35.6334C171.451 35.5433 171.241 35.4002 171.074 35.2157C170.905 35.0391 170.766 34.8362 170.664 34.6152C170.55 34.383 170.47 34.1362 170.426 33.882C170.374 33.6409 170.349 33.3951 170.351 33.1488C170.354 32.8884 170.379 32.6287 170.426 32.3723L170.396 32.4323ZM171.725 33.8377C171.798 34.063 171.929 34.266 172.104 34.4275C172.277 34.5881 172.507 34.6751 172.745 34.6692C173.014 34.663 173.275 34.5732 173.49 34.4127C173.722 34.2424 173.905 34.0149 174.019 33.7532V32.2848C173.905 32.0512 173.73 31.8515 173.512 31.7059C173.29 31.5653 173.031 31.4915 172.767 31.4936C172.581 31.4834 172.396 31.5255 172.234 31.615C172.072 31.7045 171.939 31.8376 171.85 31.9988C171.762 32.1595 171.7 32.3325 171.665 32.5119C171.621 32.7118 171.601 32.9159 171.605 33.1203C171.604 33.3689 171.641 33.6161 171.717 33.8535" fill="white"/>
<path d="M179.403 30.9738C179.475 30.6301 179.592 30.2973 179.753 29.9841C179.901 29.6774 180.097 29.3955 180.335 29.1486C180.573 28.9012 180.863 28.7062 181.184 28.5766C181.888 28.2935 182.678 28.2935 183.382 28.5766C183.7 28.7044 183.987 28.8966 184.224 29.1408C184.464 29.382 184.662 29.659 184.813 29.9615C184.975 30.28 185.095 30.6175 185.171 30.9659C185.251 31.3244 185.291 31.6907 185.29 32.0579C185.289 32.5535 185.218 33.0466 185.081 33.5233C184.962 33.9974 184.744 34.4417 184.44 34.8276L185.14 35.8831L184.327 36.5132L183.649 35.4871C183.231 35.702 182.765 35.8104 182.293 35.8026C181.989 35.8036 181.686 35.7615 181.394 35.6777C181.128 35.6088 180.877 35.4972 180.648 35.3475C180.443 35.2065 180.259 35.0362 180.105 34.8423C179.944 34.6531 179.809 34.4435 179.705 34.2192C179.653 34.1022 179.605 33.9921 179.563 33.8752L179.451 33.5164C179.385 33.2756 179.335 33.0306 179.302 32.7832C179.271 32.54 179.256 32.2951 179.257 32.05C179.258 31.6956 179.295 31.3422 179.369 30.9954L179.403 30.9738ZM180.576 32.3871C180.57 32.5007 180.583 32.6146 180.613 32.7243C180.65 32.9565 180.71 33.1846 180.792 33.4054C180.865 33.6185 180.968 33.8206 181.098 34.0059C181.219 34.1796 181.38 34.3228 181.568 34.4236C181.769 34.5375 181.998 34.5956 182.231 34.5917C182.464 34.5923 182.695 34.537 182.901 34.4305L182.119 33.2432L182.918 32.6201L183.052 32.8166L183.164 32.9847L183.306 33.197L183.455 33.4241C183.503 33.4902 183.548 33.5588 183.589 33.6295C183.8 33.1281 183.902 32.5887 183.889 32.0461V31.7355C183.895 31.6236 183.88 31.5115 183.844 31.4053C183.776 30.959 183.608 30.5332 183.352 30.159C183.233 29.9829 183.075 29.8351 182.89 29.7266C182.697 29.621 182.479 29.5656 182.257 29.5654C182.067 29.565 181.879 29.6049 181.705 29.6823C181.541 29.7601 181.394 29.8698 181.274 30.0047C181.158 30.1468 181.056 30.2988 180.968 30.4588C180.882 30.632 180.815 30.8139 180.768 31.0013C180.739 31.0923 180.716 31.1852 180.701 31.2795L180.656 31.5507V32.0559V32.3999" fill="white"/>
<path d="M187.843 30.4449V33.6519C187.843 34.3478 188.119 34.6928 188.67 34.6928C188.91 34.691 189.14 34.5964 189.311 34.4294C189.511 34.2425 189.675 34.0214 189.795 33.7767V30.4527H191.032V35.6776H189.944L189.855 35.0102C189.669 35.2445 189.442 35.4442 189.185 35.5999C188.955 35.7232 188.7 35.7957 188.439 35.8122H188.267C188.083 35.8122 187.9 35.785 187.724 35.7316C187.533 35.6699 187.359 35.5645 187.217 35.424C187.08 35.281 186.967 35.1178 186.881 34.9404C186.797 34.7454 186.737 34.5411 186.703 34.332V30.438L187.843 30.4449Z" fill="white"/>
<path d="M192.263 33.6189C192.302 33.4799 192.363 33.3474 192.442 33.2258C192.519 33.1085 192.617 33.0065 192.732 32.925C192.843 32.8454 192.96 32.7744 193.082 32.7127L193.268 32.6321L193.499 32.5584L193.738 32.5073L193.937 32.4631H195.286C195.311 32.2078 195.254 31.9513 195.123 31.7299C195.034 31.6477 194.928 31.5859 194.812 31.5492C194.696 31.5125 194.573 31.5017 194.452 31.5176C194.232 31.5157 194.013 31.5489 193.804 31.6158C193.563 31.707 193.335 31.8275 193.125 31.9746L192.526 31.1539C192.775 30.9154 193.07 30.7278 193.394 30.602C193.717 30.4762 194.063 30.4145 194.411 30.4207C194.662 30.4134 194.912 30.4381 195.157 30.4944C195.343 30.5378 195.523 30.6039 195.693 30.691C195.842 30.7702 195.971 30.8802 196.073 31.0134C196.168 31.1378 196.249 31.2731 196.312 31.4163C196.379 31.5738 196.427 31.7389 196.453 31.9077C196.447 32.0019 196.46 32.0964 196.49 32.1859V35.7242H195.469V35.2701C195.464 35.1945 195.464 35.1186 195.469 35.043C195.25 35.2701 194.999 35.465 194.724 35.6219C194.471 35.7753 194.179 35.8566 193.882 35.8568C193.657 35.8688 193.432 35.8316 193.223 35.748C193.014 35.6644 192.827 35.5365 192.674 35.3733C192.374 35.0329 192.216 34.5924 192.235 34.1418C192.233 33.9756 192.256 33.8101 192.302 33.6503L192.263 33.6189ZM193.621 34.6617C193.767 34.7854 193.957 34.8485 194.149 34.8376C194.386 34.8319 194.614 34.7551 194.805 34.6175C195.013 34.4796 195.188 34.2997 195.319 34.0897V33.1953H194.276C194.187 33.2105 194.099 33.2352 194.015 33.269C193.936 33.2993 193.861 33.3385 193.792 33.386C193.722 33.428 193.66 33.48 193.606 33.5403C193.561 33.6071 193.524 33.6782 193.494 33.7526C193.463 33.8396 193.447 33.9315 193.449 34.0238C193.438 34.2134 193.502 34.3998 193.628 34.5438" fill="white"/>
<path d="M198.999 28.1147V34.3293C198.985 34.4465 199.017 34.5644 199.088 34.6596C199.125 34.6915 199.169 34.7157 199.217 34.7307C199.264 34.7458 199.314 34.7513 199.363 34.747H199.84L199.989 35.6316C199.751 35.7244 199.499 35.7811 199.243 35.7997C199.034 35.8052 198.825 35.778 198.625 35.7191C198.472 35.6788 198.329 35.6063 198.207 35.5068C198.106 35.4164 198.025 35.3067 197.969 35.1844C197.915 35.0624 197.877 34.9343 197.857 34.8031C197.845 34.6664 197.845 34.5289 197.857 34.3922V28.6209L198.999 28.1147Z" fill="white"/>
<path d="M202.313 30.4458V35.6716H201.106V31.4208H200.555V30.4458H202.313ZM201.106 28.2472C201.183 28.1706 201.275 28.1097 201.376 28.0682C201.477 28.0267 201.585 28.0054 201.695 28.0054C201.861 28.0046 202.024 28.0524 202.162 28.1427C202.301 28.233 202.409 28.3618 202.473 28.5126C202.536 28.6634 202.553 28.8296 202.521 28.9899C202.489 29.1502 202.409 29.2975 202.292 29.4131C202.174 29.5286 202.024 29.6073 201.861 29.6389C201.698 29.6706 201.529 29.654 201.376 29.5911C201.223 29.5282 201.092 29.4219 201 29.2857C200.908 29.1495 200.86 28.9895 200.86 28.8261C200.859 28.716 200.881 28.6069 200.925 28.5055C200.968 28.404 201.032 28.3125 201.113 28.2364" fill="white"/>
<path d="M204.146 30.4382V29.3168L205.345 28.8774V30.45H206.47V31.4329H205.345V34.3057C205.334 34.4285 205.37 34.5508 205.444 34.6497C205.49 34.694 205.545 34.7281 205.606 34.7497C205.666 34.7712 205.73 34.7797 205.794 34.7746H205.943L206.279 34.7303L206.428 35.61C206.171 35.7053 205.902 35.7623 205.628 35.779C205.412 35.7813 205.197 35.7542 204.988 35.6984C204.831 35.6564 204.684 35.5843 204.556 35.4861C204.446 35.4019 204.357 35.294 204.295 35.1706C204.23 35.0538 204.182 34.9279 204.154 34.7972C204.146 34.7319 204.146 34.6659 204.154 34.6006C204.15 34.5273 204.15 34.4538 204.154 34.3804V31.4496H203.326V30.4382H204.146Z" fill="white"/>
<path d="M209.189 32.908L209.525 34.0069H209.57C209.734 33.4499 209.846 33.0895 209.906 32.9257L210.651 30.4637H212L209.84 36.5387C209.735 36.9094 209.527 37.2441 209.24 37.5058C208.921 37.713 208.542 37.8108 208.16 37.784C207.892 37.7694 207.626 37.7201 207.371 37.6375L207.528 36.6625H207.707L207.915 36.7068H208.094C208.166 36.7156 208.239 36.7156 208.31 36.7068C208.371 36.6799 208.424 36.6399 208.467 36.5898C208.66 36.2318 208.825 35.8595 208.959 35.4762L206.991 30.4165H208.332C208.832 31.8819 209.078 32.7252 209.151 32.8569" fill="white"/>
</svg>