<svg width="373" height="373" viewBox="0 0 373 373" fill="none" xmlns="http://www.w3.org/2000/svg">
<path d="M344.181 30.4997V215.274C344.221 238.476 339.133 261.4 329.279 282.405C319.425 303.41 305.051 321.976 287.184 336.774C285.658 338.051 284.07 339.298 282.481 340.513C280.893 341.728 279.74 342.631 278.308 343.628C277.872 343.939 277.498 344.22 277.093 344.469C250.597 363.039 219.029 373 186.677 373C154.324 373 122.756 363.039 96.2602 344.469C94.6095 343.285 93.1456 342.133 91.4015 340.855C89.6573 339.578 87.8508 338.051 86.1067 336.618C68.2478 321.85 53.8784 303.311 44.0293 282.331C34.1803 261.352 29.0959 238.451 29.1409 215.274V30.4997C29.1409 30.4997 150.142 47.9459 186.645 0C223.211 47.9459 344.181 30.4997 344.181 30.4997Z" fill="#1C3556"/>
<path d="M186.645 125.363L96.2602 183.808V344.407C75.5122 329.871 58.577 310.542 46.8922 288.061C35.2073 265.58 29.1179 240.611 29.1409 215.274V127.731L90.8097 65.8594L186.645 125.363Z" fill="#93AC61"/>
<path d="M344.181 127.731V215.274C344.205 239.465 338.651 263.336 327.95 285.03C317.248 306.724 301.689 325.657 282.481 340.357C280.737 341.759 278.931 343.067 277.093 344.282V183.808L186.77 125.426L282.606 65.9217L344.181 127.731Z" fill="#C3464B"/>
<path d="M287.184 185.428V336.618C285.658 337.896 284.07 339.142 282.481 340.357C280.893 341.572 279.74 342.475 278.308 343.472C277.872 343.784 277.498 344.064 277.093 344.313C250.597 362.883 219.029 372.844 186.677 372.844C154.324 372.844 122.756 362.883 96.2602 344.313C94.6094 343.129 93.1456 341.977 91.4014 340.699C89.6573 339.422 87.8508 337.896 86.1066 336.463V185.428L186.645 125.363L287.184 185.428Z" fill="#F5D384"/>
<path d="M214.583 305.682H161.635V302.38C161.635 288.485 152.883 275.557 149.177 270.042C148.5 269.119 147.886 268.151 147.339 267.145C144.274 260.959 142.696 254.142 142.73 247.238C142.571 241.179 143.627 235.149 145.835 229.505C148.044 223.861 151.36 218.717 155.588 214.375C159.816 210.034 164.871 206.583 170.454 204.227C176.036 201.871 182.034 200.657 188.094 200.657C194.153 200.657 200.151 201.871 205.734 204.227C211.317 206.583 216.371 210.034 220.599 214.375C224.828 218.717 228.144 223.861 230.352 229.505C232.56 235.149 233.616 241.179 233.458 247.238C233.766 254.251 232.139 261.213 228.755 267.363L227.851 268.672C219.006 281.133 214.521 292.473 214.521 302.38L214.583 305.682ZM168.176 299.078H208.136C208.977 288.61 213.805 277.27 222.525 264.808C222.837 264.403 223.055 264.092 223.148 263.936C225.906 258.808 227.209 253.022 226.917 247.206C227.064 242.023 226.17 236.862 224.288 232.029C222.406 227.197 219.575 222.791 215.961 219.072C212.347 215.354 208.024 212.398 203.249 210.379C198.473 208.361 193.341 207.321 188.156 207.321C182.971 207.321 177.839 208.361 173.063 210.379C168.288 212.398 163.965 215.354 160.351 219.072C156.737 222.791 153.906 227.197 152.024 232.029C150.142 236.862 149.248 242.023 149.395 247.206C149.36 253.081 150.693 258.884 153.288 264.154C153.718 264.895 154.186 265.612 154.69 266.304C158.49 271.943 167.024 284.529 168.176 299.078Z" fill="#1C3556"/>
<path d="M211.001 309.67H165.373C163.532 309.67 162.04 311.163 162.04 313.004V313.627C162.04 315.468 163.532 316.96 165.373 316.96H211.001C212.842 316.96 214.334 315.468 214.334 313.627V313.004C214.334 311.163 212.842 309.67 211.001 309.67Z" fill="#1C3556"/>
<path d="M211.001 320.823H165.373C163.532 320.823 162.04 322.316 162.04 324.157V324.78C162.04 326.621 163.532 328.113 165.373 328.113H211.001C212.842 328.113 214.334 326.621 214.334 324.78V324.157C214.334 322.316 212.842 320.823 211.001 320.823Z" fill="#1C3556"/>
<path d="M188.14 346.12C198.325 346.12 206.579 339.889 206.579 332.475H169.733C169.733 340.014 177.987 346.12 188.14 346.12Z" fill="#1C3556"/>
<path d="M186.49 190.039C185.809 190.031 185.16 189.755 184.682 189.271C184.204 188.787 183.936 188.134 183.936 187.453V162.53C183.936 161.85 184.204 161.197 184.682 160.713C185.16 160.229 185.809 159.953 186.49 159.944C187.175 159.944 187.833 160.217 188.318 160.702C188.802 161.187 189.075 161.844 189.075 162.53V187.453C189.075 188.139 188.802 188.797 188.318 189.282C187.833 189.767 187.175 190.039 186.49 190.039Z" fill="#1C3556"/>
<path d="M157.088 198.918C156.497 199.258 155.795 199.351 155.136 199.176C154.477 199.001 153.913 198.572 153.569 197.983L141.11 176.362C140.938 176.071 140.825 175.747 140.779 175.412C140.732 175.076 140.753 174.734 140.84 174.406C140.927 174.079 141.078 173.772 141.285 173.503C141.492 173.235 141.75 173.01 142.045 172.842C142.336 172.669 142.659 172.557 142.995 172.51C143.331 172.464 143.672 172.485 144 172.572C144.328 172.659 144.635 172.81 144.903 173.017C145.172 173.224 145.396 173.482 145.564 173.777L158.022 195.397C158.362 195.989 158.455 196.691 158.28 197.35C158.105 198.01 157.677 198.573 157.088 198.918Z" fill="#1C3556"/>
<path d="M136.002 221.193C135.658 221.782 135.094 222.21 134.435 222.385C133.776 222.56 133.074 222.468 132.483 222.128L110.868 209.666C110.277 209.315 109.848 208.746 109.673 208.082C109.498 207.417 109.592 206.711 109.933 206.114C110.278 205.526 110.841 205.097 111.501 204.922C112.16 204.747 112.861 204.84 113.453 205.18L135.068 217.641C135.367 217.809 135.629 218.035 135.838 218.306C136.048 218.577 136.201 218.888 136.288 219.219C136.375 219.55 136.395 219.896 136.346 220.235C136.297 220.574 136.18 220.9 136.002 221.193Z" fill="#1C3556"/>
<path d="M128.901 247.767C128.901 248.453 128.629 249.111 128.144 249.596C127.659 250.081 127.002 250.353 126.316 250.353H101.399C100.714 250.353 100.056 250.081 99.5713 249.596C99.0865 249.111 98.8141 248.453 98.8141 247.767C98.8141 247.081 99.0865 246.424 99.5713 245.939C100.056 245.454 100.714 245.181 101.399 245.181H126.316C127.002 245.181 127.659 245.454 128.144 245.939C128.629 246.424 128.901 247.081 128.901 247.767Z" fill="#1C3556"/>
<path d="M244.452 247.767C244.452 247.081 244.724 246.424 245.209 245.939C245.694 245.454 246.352 245.181 247.037 245.181H271.954C272.293 245.181 272.629 245.248 272.943 245.378C273.257 245.508 273.542 245.699 273.782 245.939C274.022 246.179 274.212 246.464 274.342 246.778C274.472 247.091 274.539 247.428 274.539 247.767C274.539 248.107 274.472 248.443 274.342 248.757C274.212 249.07 274.022 249.356 273.782 249.596C273.542 249.836 273.257 250.026 272.943 250.156C272.629 250.286 272.293 250.353 271.954 250.353H247.037C246.352 250.353 245.694 250.081 245.209 249.596C244.724 249.111 244.452 248.453 244.452 247.767Z" fill="#1C3556"/>
<path d="M238.659 218.358C238.486 218.066 238.374 217.743 238.327 217.407C238.281 217.071 238.302 216.73 238.389 216.402C238.476 216.074 238.627 215.767 238.834 215.499C239.041 215.23 239.299 215.005 239.593 214.838L261.209 202.376C261.804 202.038 262.508 201.951 263.168 202.132C263.827 202.313 264.388 202.748 264.728 203.342C265.068 203.933 265.161 204.635 264.986 205.294C264.811 205.954 264.382 206.517 263.794 206.862L242.178 219.324C241.885 219.495 241.56 219.606 241.223 219.65C240.886 219.694 240.544 219.671 240.216 219.581C239.888 219.491 239.581 219.336 239.314 219.126C239.047 218.916 238.824 218.655 238.659 218.358Z" fill="#1C3556"/>
<path d="M216.359 197.267C216.064 197.099 215.806 196.874 215.599 196.606C215.392 196.337 215.241 196.03 215.154 195.702C215.067 195.375 215.046 195.033 215.092 194.697C215.139 194.361 215.252 194.038 215.424 193.746L227.883 172.125C228.05 171.831 228.275 171.573 228.543 171.366C228.812 171.159 229.119 171.008 229.446 170.921C229.774 170.834 230.116 170.813 230.451 170.859C230.787 170.906 231.11 171.018 231.402 171.191C231.996 171.531 232.431 172.092 232.612 172.752C232.793 173.411 232.705 174.116 232.367 174.711L219.909 196.332C219.738 196.628 219.511 196.887 219.24 197.094C218.968 197.301 218.659 197.453 218.329 197.539C217.998 197.626 217.654 197.647 217.316 197.6C216.978 197.553 216.653 197.44 216.359 197.267Z" fill="#1C3556"/>
<path d="M159.953 245.836C159.191 245.828 158.462 245.519 157.925 244.976C157.389 244.434 157.088 243.701 157.088 242.938C157.286 235.996 159.961 229.354 164.627 224.212C169.294 219.07 175.646 215.767 182.534 214.9C183.257 214.85 183.972 215.072 184.539 215.523C185.105 215.974 185.482 216.621 185.596 217.337C185.709 218.052 185.55 218.784 185.151 219.388C184.751 219.993 184.14 220.425 183.437 220.601C177.874 221.204 172.719 223.808 168.932 227.928C165.145 232.049 162.984 237.405 162.85 243.001C162.834 243.758 162.521 244.479 161.98 245.009C161.439 245.539 160.711 245.836 159.953 245.836Z" fill="#1C3556"/>
</svg>
